<!-- group per page -->
<svg xmlns="http://www.w3.org/2000/svg" xmlns:xlink="http://www.w3.org/1999/xlink">
  <symbol id="search" fill-rule="nonzero" mask="url(#b)">
    <path id="a" d="M15.804 14.864l-3.846-3.847A6.745 6.745 0 0 0 6.743 0a6.743 6.743 0 1 0 4.27 11.96l3.847 3.844a.666.666 0 1 0 .944-.94zm-9.061-2.72a5.408 5.408 0 0 1-5.404-5.401 5.41 5.41 0 0 1 5.404-5.404 5.413 5.413 0 0 1 5.404 5.404 5.41 5.41 0 0 1-5.404 5.4z"/>
  </symbol>
  <symbol id="hamburger" fill="#FFF" fill-rule="nonzero">
      <path d="M15.375 5H.625a.625.625 0 1 0 0 1.25h14.75a.625.625 0 1 0 0-1.25zM15.375 0H.625a.625.625 0 1 0 0 1.25h14.75a.625.625 0 1 0 0-1.25zM15.375 10H.625a.625.625 0 1 0 0 1.25h14.75a.625.625 0 1 0 0-1.25z"/>
  </symbol>
  <symbol id="close" fill-rule="nonzero">
    <path fill="#FFF" fill-rule="nonzero" d="M8.884 8l6.933-6.933a.625.625 0 1 0-.884-.884L8 7.116 1.067.183a.625.625 0 1 0-.884.884L7.116 8 .183 14.933a.625.625 0 1 0 .884.884L8 8.884l6.933 6.933a.623.623 0 0 0 .884 0 .625.625 0 0 0 0-.884L8.884 8z"/>
  </symbol>
  <symbol id="search-md" fill-rule="nonzero" stroke="#8190B0" fill="transparent">
    <path d="M19 19l-4.8-4.8M14.17 3.26A7.714 7.714 0 1 1 3.26 14.17 7.714 7.714 0 0 1 14.17 3.26"/>
  </symbol>
  <symbol id="close-lg" fill-rule="nonzero">
    <path d="M21.716.316l.02.02a1.173 1.173 0 0 1 0 1.638l-9.106 9.34 8.56 8.78a1.173 1.173 0 0 1 0 1.638 1.114 1.114 0 0 1-1.596 0l-8.56-8.78-8.559 8.78a1.114 1.114 0 0 1-1.596 0 1.173 1.173 0 0 1 0-1.637l8.559-8.781-9.105-9.34a1.173 1.173 0 0 1 0-1.637 1.114 1.114 0 0 1 1.596 0l9.105 9.339L20.14.336c.43-.44 1.135-.45 1.576-.02z"/>
   </symbol>
   <symbol id="share" fill-rule="nonzero">
    <path d="M21.425 0h-5.736a.573.573 0 0 0-.575.57c0 .315.257.57.575.57h4.356l-11.19 11.2a.567.567 0 0 0 .013.797c.222.218.579.22.804.006L20.849 1.956v4.3c0 .315.258.57.576.57a.573.573 0 0 0 .575-.57V.57a.573.573 0 0 0-.575-.57z"/>
    <path d="M18.364 12.397a.566.566 0 0 0-.567.566v6.204a1.701 1.701 0 0 1-1.7 1.7H2.834a1.701 1.701 0 0 1-1.7-1.7V5.902a1.701 1.701 0 0 1 1.7-1.7h6.204a.566.566 0 1 0 0-1.132H2.833A2.836 2.836 0 0 0 0 5.902v13.265A2.836 2.836 0 0 0 2.833 22h13.265a2.836 2.836 0 0 0 2.832-2.833v-6.204a.566.566 0 0 0-.566-.566z"/>
  </symbol>
  <symbol id="back" fill="none" fill-rule="evenodd">
    <path fill="#343a40" stroke-opacity=".08" d="M5.128.5C3.578.5 2.94.623 2.282.975A3.135 3.135 0 0 0 .975 2.282C.623 2.941.5 3.578.5 5.128v32.744c0 1.55.123 2.187.475 2.846a3.135 3.135 0 0 0 1.307 1.307c.659.352 1.296.475 2.846.475h32.744c1.55 0 2.187-.123 2.846-.475a3.135 3.135 0 0 0 1.307-1.307c.352-.659.475-1.296.475-2.846V5.128c0-1.55-.123-2.187-.475-2.846A3.135 3.135 0 0 0 40.718.975C40.059.623 39.422.5 37.872.5H5.128z"/>
    <path fill="#FFF" d="M29 21H17.14l3.63-4.36a1.001 1.001 0 1 0-1.54-1.28l-5 6a1.19 1.19 0 0 0-.09.15c0 .05 0 .08-.07.13A1 1 0 0 0 14 22a1 1 0 0 0 .07.36c0 .05 0 .08.07.13.026.052.056.102.09.15l5 6a1 1 0 0 0 1.41.13 1 1 0 0 0 .13-1.41L17.14 23H29a1 1 0 0 0 0-2z"/>
  </symbol>
  <symbol id="image-upload" fill="none" fill-rule="nonzero">
    <path fill="#FFF" fill-opacity=".4" d="M32.225 0c1.743 0 3.307.662 4.469 1.808 1.117 1.147 1.832 2.691 1.832 4.411v16.144a9.965 9.965 0 0 1 5.543 2.603 9.27 9.27 0 0 1 2.77 6.616 9.27 9.27 0 0 1-2.77 6.617 9.518 9.518 0 0 1-6.705 2.734c-2.279 0-4.335-.838-5.989-2.161H6.302c-1.743 0-3.307-.662-4.47-1.808C.715 35.817 0 34.273 0 32.553V6.219C0 4.5.67 2.955 1.832 1.81 2.995.705 4.56 0 6.302 0zm5.095 24.657c-1.967 0-3.755.75-5.006 2.03-1.251 1.278-2.056 2.999-2.056 4.94 0 .485.045.97.134 1.41.045.177.134.398.179.574.045.265.134.53.223.75.09.177.18.309.269.485.134.265.268.53.446.75.135.133.269.309.403.441.178.177.357.397.536.574a7.1 7.1 0 0 0 4.872 1.94c1.966 0 3.71-.75 5.005-2.029 1.252-1.279 2.056-2.999 2.056-4.896 0-1.94-.76-3.66-2.056-4.94-1.296-1.235-3.039-2.029-5.005-2.029zm.117 1.852c.134 0 .267.045.4.089.179.088.312.177.401.265l2.757 2.745c.445.486.445 1.239 0 1.681-.489.443-1.245.443-1.69 0l-.711-.708v4.87c0 .663-.534 1.194-1.201 1.194s-1.2-.531-1.2-1.195v-4.869l-.713.708c-.489.443-1.245.443-1.69 0-.444-.486-.444-1.239 0-1.681l2.758-2.745a1.05 1.05 0 0 1 .4-.265c.134-.044.267-.089.4-.089zm-8.743-10.497l-9.967 9.88c-.492.441-1.252.441-1.698 0l-6.75-6.66-7.91 7.851v5.47c0 1.058.447 2.029 1.117 2.734a3.948 3.948 0 0 0 2.771 1.147v.088h22.928c-.223-.308-.402-.705-.58-1.058v-.044a15.364 15.364 0 0 1-.448-1.324c-.044-.176-.089-.308-.134-.485-.134-.661-.223-1.279-.223-1.94a9.27 9.27 0 0 1 2.77-6.617c.314-.353.671-.662 1.074-.926.089-.044.134-.088.223-.133.134-.088.223-.132.358-.22l.67-.397c.134-.088.268-.132.447-.22.134-.089.223-.133.357-.177.18-.044.358-.132.537-.177.223-.088.402-.132.58-.176l.403-.132-6.525-6.484zm3.53-13.63H6.303A3.948 3.948 0 0 0 3.53 3.529a3.67 3.67 0 0 0-1.162 2.69v17.512l7.061-7.058a1.211 1.211 0 0 1 1.699 0l6.749 6.705 9.967-9.88a1.211 1.211 0 0 1 1.698 0l6.615 6.528V6.264a3.845 3.845 0 0 0-1.162-2.735 3.948 3.948 0 0 0-2.771-1.147zm-14.512 7.754c1.74 0 3.15 1.396 3.15 3.119 0 1.722-1.41 3.118-3.15 3.118-1.739 0-3.148-1.396-3.148-3.118 0-1.723 1.41-3.12 3.148-3.12z"/>
  </symbol>
  <symbol id="vdo-upload" fill="#FFF" fill-opacity=".4" fill-rule="nonzero">
    <path d="M36.5 43c5.238 0 9.5-4.262 9.5-9.5S41.738 24 36.5 24 27 28.262 27 33.5s4.262 9.5 9.5 9.5zm0-17c4.136 0 7.5 3.364 7.5 7.5S40.636 41 36.5 41 29 37.636 29 33.5s3.364-7.5 7.5-7.5z"/>
    <path d="M33.935 32.03l2.17-2.156v8.24c0 .306.248.553.555.553a.554.554 0 0 0 .556-.553v-8.236l2.168 2.157a.552.552 0 0 0 .394.162.552.552 0 0 0 .393-.94l-3.113-3.095a.553.553 0 0 0-.782 0l-3.113 3.096a.546.546 0 1 0 .772.772zM30 19.5a.807.807 0 0 0-.392-.686l-9.307-5.687a.881.881 0 0 0-.863-.027.81.81 0 0 0-.438.712v11.375c0 .297.168.57.44.713a.875.875 0 0 0 .86-.027l9.308-5.687A.807.807 0 0 0 30 19.5zm-9.308 4.208v-8.416l6.885 4.208-6.885 4.208z"/>
    <path d="M46.19 0H.81C.363 0 0 .36 0 .804v35.392c0 .444.363.804.81.804H21.07c.447 0 .81-.36.81-.804a.807.807 0 0 0-.81-.805H9.724V1.61h27.552V18.5c0 .445.363.804.81.804h7.293v6.435c0 .445.363.804.81.804.448 0 .811-.36.811-.804V.804A.807.807 0 0 0 46.19 0zM1.62 19.304h6.483v7.24H1.621v-7.24zm6.483-1.608H1.621v-7.24h6.482v7.24zM1.621 35.39v-7.239h6.482v7.24H1.621zM8.103 8.848H1.621v-7.24h6.482v7.24zm37.276-7.24v7.24h-6.482v-7.24h6.482zm-6.482 16.088v-7.24h6.482v7.24h-6.482z"/>
  </symbol>
  <symbol id="others" fill="#FFF">
    <path id="a" d="M2.264 0A2.253 2.253 0 0 1 4.53 2.241a2.253 2.253 0 0 1-2.265 2.242A2.256 2.256 0 0 1 0 2.24 2.253 2.253 0 0 1 2.264 0zm7.664 0a2.253 2.253 0 0 1 2.264 2.241 2.253 2.253 0 0 1-2.264 2.242A2.256 2.256 0 0 1 7.664 2.24 2.253 2.253 0 0 1 9.928 0zm8.012 0a2.253 2.253 0 0 1 2.264 2.241 2.253 2.253 0 0 1-2.264 2.242 2.256 2.256 0 0 1-2.264-2.242A2.253 2.253 0 0 1 17.94 0zM2.264.871c-.766 0-1.388.616-1.388 1.375S1.497 3.62 2.264 3.62c.767 0 1.389-.615 1.389-1.374 0-.76-.622-1.375-1.389-1.375zm7.664 0c-.767 0-1.388.616-1.388 1.375S9.16 3.62 9.928 3.62c.767 0 1.388-.615 1.388-1.374 0-.76-.621-1.375-1.388-1.375zm8.012 0c-.767 0-1.388.616-1.388 1.375s.621 1.374 1.388 1.374c.767 0 1.388-.615 1.388-1.374 0-.76-.621-1.375-1.388-1.375z"/>
  </symbol>
  <symbol id="info-sm" fill="#FFF">
    <path id="a" d="M7.5 3.88a.776.776 0 1 1 0 1.551.776.776 0 0 1 0-1.552zm0 2.133c.428 0 .776.347.776.776v3.569a.776.776 0 1 1-1.552 0v-3.57c0-.428.348-.775.776-.775zm5.303-3.816A7.45 7.45 0 0 1 15 7.5a7.45 7.45 0 0 1-2.197 5.303A7.45 7.45 0 0 1 7.5 15a7.45 7.45 0 0 1-5.303-2.197A7.45 7.45 0 0 1 0 7.5a7.45 7.45 0 0 1 2.197-5.303A7.45 7.45 0 0 1 7.5 0a7.45 7.45 0 0 1 5.303 2.197zM7.5 14.107A6.615 6.615 0 0 0 14.107 7.5 6.615 6.615 0 0 0 7.5.893 6.615 6.615 0 0 0 .893 7.5 6.615 6.615 0 0 0 7.5 14.107z"/>
  </symbol>
  <symbol id="play" fill="#FFF">
    <path fill="#F05E83" fill-rule="evenodd" d="M.18.18L9.32 6 .18 11.82z"/>
  </symbol>
  <symbol id="rewind" fill="#FFF">
    <path fill="#F05E83" fill-rule="evenodd" d="M7.42 5L.32 0v10l7.1-5zm.4 5l7.1-5-7.1-5v10z"/>
  </symbol>
  <symbol id="edit" fill="#FFF">
    <path id="a" d="M18.07 1.252a4.262 4.262 0 0 0-6.03 0L.98 12.306a.553.553 0 0 0-.156.317l-.82 6.068a.551.551 0 0 0 .157.466.562.562 0 0 0 .391.164c.025 0 .05 0 .074-.004l3.656-.494a.557.557 0 1 0-.148-1.103l-2.932.395.573-4.232 4.454 4.454a.545.545 0 0 0 .782 0L18.072 7.283a4.238 4.238 0 0 0 1.251-3.018c0-1.14-.444-2.21-1.251-3.013zM12.255 2.61l1.856 1.857-10.09 10.09-1.857-1.856 10.09-10.09zM6.626 17.16L4.81 15.344 14.9 5.254l1.816 1.815-10.09 10.09zM17.49 6.274l-4.442-4.442a3.145 3.145 0 0 1 2.01-.72c.843 0 1.634.33 2.23.922.598.593.923 1.387.923 2.231 0 .746-.255 1.445-.72 2.01z"/>
  </symbol>
  <symbol id="next-user" viewBox="0 0 43 43">
    <path fill="#030616" fill-opacity=".1" stroke="#fff" stroke-opacity="0.08" d="M5.128.5C3.578.5 2.94.623 2.282.975A3.135 3.135 0 0 0 .975 2.282C.623 2.941.5 3.578.5 5.128v32.744c0 1.55.123 2.187.475 2.846a3.135 3.135 0 0 0 1.307 1.307c.659.352 1.296.475 2.846.475h32.744c1.55 0 2.187-.123 2.846-.475a3.135 3.135 0 0 0 1.307-1.307c.352-.659.475-1.296.475-2.846V5.128c0-1.55-.123-2.187-.475-2.846A3.135 3.135 0 0 0 40.718.975C40.059.623 39.422.5 37.872.5H5.128z"/>
    <path fill="#FFF" d="M14 21.001h11.86l-3.63-4.36a1.001 1.001 0 0 1 1.54-1.28l5 6c.034.048.064.098.09.15 0 .05 0 .08.07.13a1 1 0 0 1 .07.36 1 1 0 0 1-.07.36c0 .05 0 .08-.07.13a1.19 1.19 0 0 1-.09.15l-5 6a1 1 0 0 1-1.41.13 1 1 0 0 1-.13-1.41l3.63-4.36H14a1 1 0 1 1 0-2z"/>
  </symbol>
  <symbol id="prev-user" viewBox="0 0 43 43">
    <path fill="#030616" fill-opacity=".1" stroke="#fff" stroke-opacity="0.08" d="M5.128.5C3.578.5 2.94.623 2.282.975A3.135 3.135 0 0 0 .975 2.282C.623 2.941.5 3.578.5 5.128v32.744c0 1.55.123 2.187.475 2.846a3.135 3.135 0 0 0 1.307 1.307c.659.352 1.296.475 2.846.475h32.744c1.55 0 2.187-.123 2.846-.475a3.135 3.135 0 0 0 1.307-1.307c.352-.659.475-1.296.475-2.846V5.128c0-1.55-.123-2.187-.475-2.846A3.135 3.135 0 0 0 40.718.975C40.059.623 39.422.5 37.872.5H5.128z"/>
    <path fill="#FFF" d="M28 20.001H16.14l3.63-4.36a1.001 1.001 0 1 0-1.54-1.28l-5 6a1.19 1.19 0 0 0-.09.15c0 .05 0 .08-.07.13a1 1 0 0 0-.07.36 1 1 0 0 0 .07.36c0 .05 0 .08.07.13.026.052.056.103.09.15l5 6a1 1 0 0 0 1.41.13 1 1 0 0 0 .13-1.41l-3.63-4.36H28a1 1 0 1 0 0-2z"/>
  </symbol>
</svg>
