<svg xmlns="http://www.w3.org/2000/svg" xmlns:xlink="http://www.w3.org/1999/xlink">
  <symbol id="site" opacity=".1">
    <g fill="#FFF" fill-rule="nonzero" mask="url(#site)">
      <path id="site" d="M5.013 43.087C2.245 43.084.003 40.86 0 38.115V4.972C.003 2.227 2.245.003 5.013 0h50.13c2.768.003 5.01 2.227 5.013 4.972v33.143c-.003 2.745-2.245 4.969-5.013 4.972h-3.342v5.943c0 1.34-.814 2.548-2.063 3.061a3.362 3.362 0 0 1-3.642-.718l-8.355-8.286H5.013zM3.342 4.972v33.143c0 .915.749 1.657 1.671 1.658h32.728a3.332 3.332 0 0 1 2.363.97l8.355 8.287v-5.943c.002-1.83 1.497-3.313 3.342-3.314h3.342c.922-.001 1.67-.743 1.671-1.658V4.972c0-.915-.749-1.657-1.67-1.658H5.012c-.922.001-1.67.743-1.671 1.658zm91.655 15.34c2.762.004 5 2.231 5.003 4.981V95.02c-.003 2.75-2.24 4.977-5.003 4.98H18.284c-2.762-.003-5-2.23-5.003-4.98V46.875h3.336V95.02c0 .916.747 1.659 1.667 1.66h76.713c.92-.001 1.667-.744 1.668-1.66V36.914H63.31v-3.32h33.354v-8.301c-.001-.916-.748-1.66-1.668-1.66H63.311v-3.32h31.686zm-71.56 66.146V72.917a3.389 3.389 0 0 1 3.386-3.386h13.542a3.389 3.389 0 0 1 3.385 3.386v13.541a3.389 3.389 0 0 1-3.385 3.386H26.823a3.389 3.389 0 0 1-3.386-3.386zm3.386-13.541v13.541h13.542V72.917H26.823zm6.575-12.76h-6.64a3.324 3.324 0 0 1-3.32-3.321v-6.64a3.324 3.324 0 0 1 3.32-3.321h6.64a3.324 3.324 0 0 1 3.32 3.32v6.64a3.324 3.324 0 0 1-3.32 3.321zm-6.64-9.962h-.003l.003 6.64h6.64v-6.64h-6.64zm63.086-.455a3.389 3.389 0 0 1-3.386 3.385h-3.385a3.389 3.389 0 0 1-3.385-3.385v-3.386a3.389 3.389 0 0 1 3.385-3.385h3.385a3.389 3.389 0 0 1 3.386 3.385v3.386zm-3.386 0v-3.386h-3.385v3.386h3.385zM46.875 86.719H50v3.125h-3.125v-3.125zm6.25 0H81.25v3.125H53.125v-3.125zm32.031 0h3.125v3.125h-3.125v-3.125zm-38.281-9.375H50v3.125h-3.125v-3.125zm6.25 0H81.25v3.125H53.125v-3.125zm32.031 0h3.125v3.125h-3.125v-3.125zM23.437 63.28h3.125v3.125h-3.125v-3.125zm6.25 0H81.25v3.125H29.687v-3.125zm55.47 0h3.124v3.125h-3.125v-3.125zm-11.72-16.406h3.126V50h-3.126v-3.125zm-11.718 0h8.593V50H61.72v-3.125zm-6.25 0h3.125V50h-3.125v-3.125z"/>
    </g>
  </symbol>
  <symbol id="moreinfo">
    <circle fill="#F05E83" xmlns="http://www.w3.org/2000/svg" id="c" cx="6" cy="6" r="6"/>
    <path fill="#FFF" fill-rule="nonzero" d="M6 2a1 1 0 1 1 0 2 1 1 0 0 1 0-2zm0 3a1 1 0 0 1 1 1v3a1 1 0 1 1-2 0V6a1 1 0 0 1 1-1z"/>
  </symbol>
  <symbol id="credit" opacity=".1">
    <g fill="#FFF" fill-rule="nonzero" mask="url(#credit)">
       <path id="credit" d="M5 90a5.005 5.005 0 0 1-5-5V38.333a5.005 5.005 0 0 1 5-5h66.667a5.005 5.005 0 0 1 5 5V85a5.005 5.005 0 0 1-5 5H5zM3.333 38.333V85c.001.92.747 1.666 1.667 1.667h66.667c.92-.001 1.666-.747 1.666-1.667V38.333c0-.92-.746-1.666-1.666-1.666H5c-.92 0-1.666.746-1.667 1.666zM51.667 60A8.328 8.328 0 1 1 55 44.04a8.334 8.334 0 1 1 0 15.254 8.264 8.264 0 0 1-3.333.706zm1.666-8.333a4.971 4.971 0 0 0 1.667 3.7 4.94 4.94 0 0 0 0-7.4 4.971 4.971 0 0 0-1.667 3.7zm10 0a5.005 5.005 0 0 0-5-5l-.039.004a8.168 8.168 0 0 1 0 9.992l.04.004a5.005 5.005 0 0 0 5-5zm-11.666-5a5 5 0 0 0 0 10l.039-.004a8.168 8.168 0 0 1 0-9.992l-.04-.004zM13.333 60A3.338 3.338 0 0 1 10 56.667v-10a3.338 3.338 0 0 1 3.333-3.334h10a3.338 3.338 0 0 1 3.334 3.334v10A3.338 3.338 0 0 1 23.333 60h-10zm10-13.333h-10V50h5v3.333h-5v3.334h10.002l-.002-10zM10 63.333h43.333v3.334H10v-3.334zm30 13.334h10V80H40v-3.333zM63.333 70a3.338 3.338 0 0 1 3.334 3.333v3.334A3.338 3.338 0 0 1 63.333 80h-6.666a3.338 3.338 0 0 1-3.334-3.333v-3.334A3.338 3.338 0 0 1 56.667 70h6.666zm-6.666 6.667h6.668l-.002-3.334h-6.666v3.334zm-46.667 0h13.333V80H10v-3.333zM95 0a5.005 5.005 0 0 1 5 5v43.333a5.005 5.005 0 0 1-5 5H80v-1.666c.013-9.473 7.234-17.38 16.667-18.249V19.915A18.352 18.352 0 0 1 80.085 3.333h-50.17a18.352 18.352 0 0 1-16.582 16.582V30H10V5a5.005 5.005 0 0 1 5-5h80zM13.333 16.575a15.028 15.028 0 0 0 13.24-13.242H15c-.92.001-1.666.747-1.667 1.667v11.575zM83.426 3.333a15.028 15.028 0 0 0 13.24 13.242V5c0-.92-.746-1.666-1.666-1.667H83.426zm13.24 45V36.76A15.028 15.028 0 0 0 83.427 50H95c.92 0 1.666-.746 1.667-1.667zM69.529 30.414l-3.23-.828a11.666 11.666 0 1 0-22.597 0l-3.229.828a15 15 0 1 1 29.056 0z"/>
    </g>
  </symbol>
  <symbol id="member" opacity=".1">
    <g fill="#FFF" fill-rule="nonzero" mask="url(#member)">
       <path id="member" d="M68.333 18.468c0 4.989-2.04 9.76-5.647 13.205l2.487 6.004a3.334 3.334 0 0 1-3.728 4.545l-1.75-.346-.992 1.483a3.332 3.332 0 0 1-5.85-.582l-2.483-5.994c-.123.002-.245.019-.37.019s-.247-.017-.371-.019l-2.484 5.996a3.33 3.33 0 0 1-5.848.579l-.993-1.481-1.75.345a3.333 3.333 0 0 1-3.727-4.545l2.487-6.004a18.334 18.334 0 1 1 31.02-13.205zm-33.333 0c.009 8.28 6.72 14.991 15 15 8.285 0 15-6.715 15-15 0-8.284-6.715-15-15-15s-15 6.716-15 15zm9.067 23.035l2.115-5.107a18.204 18.204 0 0 1-6.154-2.565l-2.121 5.122 1.75-.347a3.32 3.32 0 0 1 3.418 1.416l.992 1.481zm18.026-2.55l-2.121-5.122a18.2 18.2 0 0 1-6.154 2.565l2.116 5.107.991-1.482a3.33 3.33 0 0 1 3.417-1.415l1.751.347zm-14.08-14.894a4.972 4.972 0 0 1-2.993-.992l-4.353-3.266 1.999-2.666 4.354 3.266a1.674 1.674 0 0 0 2.18-.156l7.955-7.955 2.357 2.357-7.956 7.956a5.001 5.001 0 0 1-3.543 1.456zm-19.68 31.076h43.334v3.333H28.333v-3.333zm-15 23.333h3.334v3.334h-3.334v-3.334zm6.667 0h6.667v3.334H20v-3.334zm10 0h3.333v3.334H30v-3.334zm36.667 0H70v3.334h-3.333v-3.334zm6.666 0H80v3.334h-6.667v-3.334zm10 0h3.334v3.334h-3.334v-3.334zM95 21.802a5.005 5.005 0 0 1 5 5v65a5.005 5.005 0 0 1-5 5H5a5.005 5.005 0 0 1-5-5v-65a5.005 5.005 0 0 1 5-5h23.333v3.333H5c-.92 0-1.666.747-1.667 1.667v65c.001.92.747 1.666 1.667 1.666h90c.92 0 1.666-.746 1.667-1.666v-65c-.001-.92-.747-1.666-1.667-1.667H71.667v-3.333H95zm-81.667 6.666v3.334H10v3.333H6.667v-3.333A3.338 3.338 0 0 1 10 28.468h3.333zm80 6.667H90v-3.333h-3.333v-3.334H90a3.338 3.338 0 0 1 3.333 3.334v3.333zM6.667 83.468H10v3.334h3.333v3.333H10a3.337 3.337 0 0 1-3.333-3.333v-3.334zm80 6.667v-3.333H90v-3.334h3.333v3.334A3.337 3.337 0 0 1 90 90.135h-3.333z"/>
    </g>
  </symbol>
  <symbol id="model" opacity=".1">
    <g fill="#FFF" fill-rule="nonzero" mask="url(#model)">
       <path id="a" d="M26.667 56.667a1.667 1.667 0 1 1-3.334 0 1.667 1.667 0 0 1 3.334 0zm-5-8.334h6.666v3.334h-6.666v-3.334zm21.666 8.334a1.667 1.667 0 1 1-3.333 0 1.667 1.667 0 0 1 3.333 0zm-5-8.334H45v3.334h-6.667v-3.334zm-6.666 10H35V65h-3.333v-6.667zm8.538 11.428a13.34 13.34 0 0 1-13.743 0l1.718-2.855a10.175 10.175 0 0 0 10.306 0l1.72 2.855zM5 61.667a5.005 5.005 0 0 1-5-5v-15a5.005 5.005 0 0 1 5-5h1.667V30c.009-8.28 6.72-14.991 15-15H40v3.333H21.667C15.227 18.341 10.008 23.56 10 30v6.667h3.333C13.341 30.227 18.56 25.008 25 25h15v3.333H25a8.343 8.343 0 0 0-8.333 8.334v3.553l1.181-.788a4.986 4.986 0 0 1 3.986-.69l11.094 2.773c.267.066.546.066.812-.001l5.856-1.464.808 3.233-5.858 1.465a5.065 5.065 0 0 1-2.424.001l-11.095-2.775a1.692 1.692 0 0 0-1.328.23l-3.032 2.021V60c0 9.205 7.461 16.667 16.666 16.667S50 69.205 50 60V48.333h3.333v10h8.334c.92 0 1.666-.746 1.666-1.666V45h3.334v11.667a5.005 5.005 0 0 1-5 5h-8.418a20.012 20.012 0 0 1-11.582 16.49v4.065l14.871 6.198a8.31 8.31 0 0 1 5.129 7.692V100h-3.334v-3.888a4.987 4.987 0 0 0-3.077-4.616l-13.966-5.82a8.279 8.279 0 0 1-15.913 0l-13.966 5.82a4.987 4.987 0 0 0-3.078 4.616V100H5v-3.888a8.31 8.31 0 0 1 5.129-7.692L25 82.222v-4.064a20.012 20.012 0 0 1-11.582-16.491H10v15c0 .92.746 1.666 1.667 1.666h6.666v3.334h-6.666a5.005 5.005 0 0 1-5-5v-15H5zm33.333 17.675a19.31 19.31 0 0 1-10 0v3.991a5 5 0 0 0 10 0v-3.991zm-35-37.675v15c.001.92.747 1.666 1.667 1.666h8.333V40H5c-.92 0-1.666.746-1.667 1.667zm52.23 3.393a3.295 3.295 0 0 1-2.23-3.144V40h-5a5.005 5.005 0 0 1-5-5V18.333a5.005 5.005 0 0 1 5-5h30a5.005 5.005 0 0 1 5 5V35a5.005 5.005 0 0 1-5 5H62.467l-3.196 3.997a3.298 3.298 0 0 1-3.708 1.063zm-7.23-8.393h5A3.338 3.338 0 0 1 56.667 40v1.916l3.198-4a3.312 3.312 0 0 1 2.602-1.25h15.866c.92 0 1.666-.746 1.667-1.666V18.333c0-.92-.746-1.666-1.667-1.666h-30c-.92 0-1.666.746-1.666 1.666V35c0 .92.746 1.666 1.666 1.667zM95 0a5.005 5.005 0 0 1 5 5v16.667a5.005 5.005 0 0 1-5 5h-8.333v-3.334H95c.92 0 1.666-.746 1.667-1.666V5c-.001-.92-.747-1.666-1.667-1.667H65c-.92.001-1.666.747-1.667 1.667v5H60V5a5.005 5.005 0 0 1 5-5h30z"/>
    </g>
  </symbol>
</svg>