<svg xmlns="http://www.w3.org/2000/svg" xmlns:xlink="http://www.w3.org/1999/xlink">
  <symbol id="user" viewBox="0 0 45 45">
    <path id="a" d="M17.743 3.648c-4.167 0-7.556 3.446-7.556 7.68s3.39 7.68 7.556 7.68 7.556-3.446 7.556-7.68-3.39-7.68-7.556-7.68zm0 19.008c-6.145 0-11.145-5.082-11.145-11.328C6.598 5.082 11.598 0 17.743 0s11.145 5.082 11.145 11.328c0 6.246-5 11.328-11.145 11.328zM1.809 39.996a1.75 1.75 0 0 1-.715-.152c-.918-.407-1.341-1.503-.946-2.449 2.994-7.16 9.827-11.787 17.41-11.787 7.579 0 14.412 4.627 17.408 11.787.396.945-.028 2.042-.946 2.449-.922.416-1.984-.03-2.379-.974-2.424-5.792-7.951-9.535-14.084-9.535S5.895 33.078 3.473 38.87a1.808 1.808 0 0 1-1.664 1.126z"/>
  </symbol>
   <symbol id="clock" viewBox="0 0 60 60">
    <path id="a" d="M25 0c13.818 0 25 11.181 25 25 0 13.818-11.181 25-25 25C11.182 50 0 38.819 0 25 0 11.182 11.181 0 25 0zm0 46.094c11.659 0 21.094-9.435 21.094-21.094S36.659 3.906 25 3.906 3.906 13.341 3.906 25 13.341 46.094 25 46.094zm10.77-16.91a1.953 1.953 0 1 1-2.01 3.35l-9.765-5.86A1.953 1.953 0 0 1 23.047 25V9.375a1.953 1.953 0 1 1 3.906 0v14.52l8.818 5.29z"/>
  </symbol>
  <symbol id="dollar" viewBox="0 0 60 60">
    <path id="a" d="M37.96 41.381a4.388 4.388 0 0 1 2.986 4.156 4.39 4.39 0 0 1-4.386 4.386H4.396A4.39 4.39 0 0 1 .01 45.537c0-1.881 1.2-3.551 2.987-4.156.091-.03.132-.088.132-.185V29.553c0-2.934.885-5.763 2.56-8.181a14.494 14.494 0 0 1 5.24-4.623 4.377 4.377 0 0 1 1.457-4.282c-.192-.272-.385-.544-.576-.811C9.781 8.814 7.683 5.876 8.18 2.57 8.369 1.299 8.92.484 9.816.147c1.623-.611 3.282.792 5.038 2.277.676.572 2.078 1.758 2.569 1.836.33-.001.475-.026.926-1.484.215-.695.459-1.483.94-2.149.217-.302.53-.494.866-.57.17-.037.346-.045.518-.022.385.05.75.252.995.592.48.666.724 1.454.94 2.15.45 1.457.595 1.482.926 1.483.49-.077 1.841-1.22 2.569-1.836C27.858.94 29.516-.464 31.14.147c.896.337 1.447 1.152 1.638 2.424.495 3.305-1.603 6.243-3.632 9.085l-.577.812a4.377 4.377 0 0 1 1.457 4.282 14.504 14.504 0 0 1 5.307 4.718 14.312 14.312 0 0 1 2.494 8.085v11.644c0 .096.04.153.132.184zM13.752 15.817c0 .806.656 1.462 1.462 1.462h10.526c.806 0 1.462-.656 1.462-1.462 0-.807-.656-1.462-1.462-1.462H15.215c-.806 0-1.462.655-1.462 1.462zM11.051 3.156c-.222 2.094 1.412 4.382 3.139 6.8.343.48.693.973 1.038 1.475h10.53c.037-.082.08-.162.134-.239.291-.419.588-.834.875-1.236 1.727-2.419 3.361-4.707 3.138-6.801-.563.358-1.373 1.044-1.914 1.501-1.536 1.3-2.988 2.528-4.442 2.528h-.011c-1.644-.007-2.528-.873-3.06-1.844-.531.971-1.415 1.837-3.06 1.844-1.46.008-2.912-1.225-4.453-2.528-.507-.429-1.34-1.133-1.914-1.5zM36.56 46.999c.806 0 1.462-.656 1.462-1.462 0-.627-.402-1.184-1-1.386a3.078 3.078 0 0 1-2.119-2.955V29.553c0-4.401-2.5-8.371-6.426-10.312-.75.601-1.702.962-2.736.962H15.215a4.363 4.363 0 0 1-2.735-.962c-3.878 1.93-6.427 5.963-6.427 10.312v11.644c0 1.359-.832 2.518-2.119 2.954-.598.202-1 .76-1 1.386 0 .806.656 1.462 1.462 1.462H36.56zM23.794 33.646c1.176.856 1.765 2.023 1.752 3.469-.012 1.394-.598 2.605-1.65 3.409a4.933 4.933 0 0 1-1.858.861v1.23a1.462 1.462 0 0 1-2.924 0V41.34c-1.928-.507-3.59-1.954-3.59-4.225a1.462 1.462 0 0 1 2.924 0c0 1.089 1.356 1.5 2.21 1.504h.013c.472 0 1.939-.115 1.951-1.53a1.243 1.243 0 0 0-.481-1.025c-.299-.24-.659-.4-1.01-.545-.54-.224-1.097-.4-1.648-.593-.575-.203-1.145-.427-1.679-.725-.64-.357-1.23-.82-1.658-1.42-.514-.716-.744-1.58-.736-2.455.013-1.394.598-2.605 1.65-3.409a4.933 4.933 0 0 1 1.859-.861v-1.182a1.462 1.462 0 0 1 2.924 0v1.227c1.927.507 3.59 1.954 3.59 4.225a1.462 1.462 0 0 1-2.925 0c0-1.089-1.356-1.5-2.21-1.504-.455-.006-1.951.102-1.964 1.53-.006.702.283 1.135 1.958 1.756l.046.013c.173.062.348.122.523.182 1.012.347 2.059.706 2.933 1.343z"/>
  </symbol>
  <symbol id="togo" viewBox="0 0 60 60">
    <path id="a" d="M6.285 32.388c-.424-.22-.756-.718-.54-1.33l.605-1.64c.183-.492.64-.81 1.165-.81.192 0 .379.043.555.127.028.013 2.786 1.304 4.823 1.304 2.385 0 4.051-1.279 4.051-3.11 0-1.684-1.176-2.832-4.059-3.964C9.28 21.595 5.94 19.77 5.94 15.73c0-3.242 2.192-5.81 5.7-6.646.075-.018.28-.1.28-.29l-.003-2.474c0-.708.591-1.285 1.318-1.285h1.137c.727 0 1.318.577 1.318 1.285l.01 2.353c0 .182.155.215.2.223.028.005 2.807.483 4.228 1.103.428.184.763.7.542 1.29l-.634 1.622a1.217 1.217 0 0 1-1.138.78c-.207 0-.416-.054-.602-.153-.016-.008-1.788-.918-4.097-.918-2.61 0-3.537 1.427-3.537 2.65 0 1.528 1.01 2.374 4.5 3.773 4.587 1.813 6.545 4.091 6.545 7.618 0 3.433-2.302 6.167-6.039 7.006-.036.009-.216.03-.216.273v2.591c0 .709-.591 1.286-1.318 1.286h-1.176c-.727 0-1.318-.577-1.318-1.286v-2.462c0-.182-.2-.252-.239-.258-.145-.023-3.423-.54-5.116-1.422zm38.94-22.483c.315.777.259 1.572-.153 2.183-.398.591-1.074.93-1.855.93-.126 0-.256-.009-.386-.026l-2.127-.285c-1.252 8.279-3.789 15.344-7.559 21.034-3.43 5.175-7.867 9.218-13.19 12.016C12.65 49.597 5.755 50 3.187 50c-.611 0-.977-.023-1.045-.027a2.299 2.299 0 0 1 .31-4.588c.152.01 7.679.41 15.549-3.796 9.887-5.283 15.984-15.197 18.148-29.492l-2.183-.292c-.89-.12-1.574-.606-1.876-1.336-.303-.73-.165-1.558.379-2.272L37.962.983C38.444.349 39.094 0 39.79 0c.88 0 1.66.575 2.034 1.5l3.401 8.405z"/>
  </symbol>
  <symbol id="chat" viewBox="0 0 60 60">
    <path id="a" d="M49.3 0H8.7C3.897.005.005 3.883 0 8.667v25.04c.005 4.784 3.897 8.661 8.7 8.667h2.687l-1.701 8.474a.962.962 0 0 0 .37.96.969.969 0 0 0 1.028.081l18.155-9.515H49.3c4.803-.006 8.695-3.883 8.7-8.668V8.667C57.995 3.883 54.103.005 49.3 0zm5.833 32.934c-.004 3.506-2.919 6.346-6.516 6.35h-19.55c-.152 0-.3.036-.434.105l-15.958 8.184 1.478-7.2a.89.89 0 0 0-.191-.755.94.94 0 0 0-.722-.334H9.517C5.919 39.28 3.004 36.44 3 32.934V9.35C3.004 5.844 5.92 3.004 9.517 3h39.1c3.597.004 6.512 2.844 6.516 6.35v23.584z"/>
  </symbol>
  <symbol id="plus" viewBox="0 0 43 43">
    <path fill="#030616" fill-opacity=".1" stroke="#FFF" stroke-opacity=".08" d="M5.128.5C3.578.5 2.94.623 2.282.975A3.135 3.135 0 0 0 .975 2.282C.623 2.941.5 3.578.5 5.128v32.744c0 1.55.123 2.187.475 2.846a3.135 3.135 0 0 0 1.307 1.307c.659.352 1.296.475 2.846.475h32.744c1.55 0 2.187-.123 2.846-.475a3.135 3.135 0 0 0 1.307-1.307c.352-.659.475-1.296.475-2.846V5.128c0-1.55-.123-2.187-.475-2.846A3.135 3.135 0 0 0 40.718.975C40.059.623 39.422.5 37.872.5H5.128z"/>
    <path fill="#FFF" d="M22 12c.986 0 1.786.8 1.786 1.786l-.001 6.428h6.43a1.786 1.786 0 1 1 0 3.572l-6.43-.001v6.43a1.786 1.786 0 1 1-3.57 0l-.001-6.43h-6.428a1.786 1.786 0 1 1 0-3.57l6.428-.001v-6.428c0-.987.8-1.786 1.786-1.786z"/>
  </symbol>
  <symbol id="minus" viewBox="0 0 43 43">
    <path fill="#030616" fill-opacity=".1" stroke="#FFF" stroke-opacity=".08" d="M5.128.5C3.578.5 2.94.623 2.282.975A3.135 3.135 0 0 0 .975 2.282C.623 2.941.5 3.578.5 5.128v32.744c0 1.55.123 2.187.475 2.846a3.135 3.135 0 0 0 1.307 1.307c.659.352 1.296.475 2.846.475h32.744c1.55 0 2.187-.123 2.846-.475a3.135 3.135 0 0 0 1.307-1.307c.352-.659.475-1.296.475-2.846V5.128c0-1.55-.123-2.187-.475-2.846A3.135 3.135 0 0 0 40.718.975C40.059.623 39.422.5 37.872.5H5.128z"/>
    <rect width="3.571" height="20" x="10" y="2" fill="#FFF" rx="1.786" transform="rotate(90 11.786 22)"/>
  </symbol>
  <symbol id="auto" viewBox="0 0 43 43">
    <path fill="#030616" fill-opacity=".1" stroke="#FFF" stroke-opacity=".08" d="M5.128.5C3.578.5 2.94.623 2.282.975A3.135 3.135 0 0 0 .975 2.282C.623 2.941.5 3.578.5 5.128v32.744c0 1.55.123 2.187.475 2.846a3.135 3.135 0 0 0 1.307 1.307c.659.352 1.296.475 2.846.475h32.744c1.55 0 2.187-.123 2.846-.475a3.135 3.135 0 0 0 1.307-1.307c.352-.659.475-1.296.475-2.846V5.128c0-1.55-.123-2.187-.475-2.846A3.135 3.135 0 0 0 40.718.975C40.059.623 39.422.5 37.872.5H5.128z"/>
    <path fill="#FFF" fill-rule="nonzero" d="M24.25 23l-2.46-6.3-2.46 6.3h4.92zm1.17 3.18h-7.26l-1.83 4.35c-.27.63-.84 1.14-1.62 1.14-.93 0-1.71-.78-1.71-1.71 0-.18.03-.42.12-.63l7.08-17.25c.18-.42.66-1.08 1.59-1.08s1.41.66 1.59 1.08l7.08 17.25c.09.21.12.45.12.63 0 .93-.78 1.71-1.71 1.71-.78 0-1.35-.51-1.62-1.14l-1.83-4.35z"/>
  </symbol>
  <symbol id="emoji" viewBox="0 0 52 52">
    <path id="a" d="M25 50C11.193 50 0 38.807 0 25S11.193 0 25 0s25 11.193 25 25-11.193 25-25 25zm17.744-21.222a1.564 1.564 0 0 0-1.244-.622H8.437c-.49 0-.95.228-1.243.619a1.56 1.56 0 0 0-.263 1.369c2.26 8.028 9.678 13.637 18.035 13.637 8.356 0 15.775-5.61 18.034-13.637.134-.472.04-.975-.256-1.366zm-3.735-8.088c.832 0 1.508-.692 1.508-1.552 0-3.423-2.706-6.207-6.034-6.207s-6.035 2.784-6.035 6.207c0 .856.676 1.552 1.509 1.552.833 0 1.509-.696 1.509-1.552 0-1.71 1.351-3.104 3.017-3.104 1.665 0 3.017 1.394 3.017 3.104 0 .856.676 1.552 1.509 1.552zm-18.966 0c.833 0 1.509-.692 1.509-1.552 0-3.423-2.707-6.207-6.035-6.207-3.328 0-6.034 2.784-6.034 6.207 0 .856.676 1.552 1.508 1.552.833 0 1.509-.696 1.509-1.552 0-1.71 1.355-3.104 3.017-3.104 1.663 0 3.017 1.394 3.017 3.104 0 .856.676 1.552 1.51 1.552z"/>
  </symbol>
  <symbol id="gallery" viewBox="0 0 26 20">
    <path id="a" d="M26 3.254V16.32a3.25 3.25 0 0 1-3.25 3.25H3.25A3.25 3.25 0 0 1 0 16.32V3.254A3.25 3.25 0 0 1 3.25.004h19.5A3.25 3.25 0 0 1 26 3.254zM3.25 1.304c-1.075 0-1.95.897-1.95 1.973v11.905l6.19-4.1a2.144 2.144 0 0 1 2.435-.124l4.392 2.725 1.844-1.921a2.126 2.126 0 0 1 2.764-.276l5.775 3.71V3.276c0-1.075-.875-1.972-1.95-1.972H3.25zM1.334 16.73a1.963 1.963 0 0 0 1.916 1.604h6.626l3.521-3.68-4.158-2.59a.84.84 0 0 0-.964.058c-.015.011-.03.025-.046.036L1.334 16.73zm21.416 1.604a1.961 1.961 0 0 0 1.916-1.602l-6.454-4.156-.023-.013a.835.835 0 0 0-1.09.11l-5.421 5.661H22.75zm-12.332-8.296a3.964 3.964 0 1 1 0-7.927 3.964 3.964 0 0 1 0 7.927zm0-6.627a2.663 2.663 0 1 0 0 5.327 2.663 2.663 0 0 0 0-5.327z"/>
  </symbol>
  <symbol id="video" viewBox="0 -16 58 58">
    <path id="a" d="M29.053 0a3.129 3.129 0 0 1 3.125 3.125V23.69a3.129 3.129 0 0 1-3.125 3.125H3.125A3.128 3.128 0 0 1 0 23.69V3.125A3.128 3.128 0 0 1 3.125 0h25.928zm5.729 17.972a1 1 0 0 1-.52-.878V9.788a1 1 0 0 1 .52-.878l8.739-4.771A1 1 0 0 1 45 5.017v16.848a1 1 0 0 1-1.48.878l-8.738-4.771z"/>
  </symbol>
  <symbol id="audio" viewBox="0 -5 58 58">
    <path id="a" d="M24.759 35.083a2.245 2.245 0 0 1-2.248 2.247 2.246 2.246 0 0 1-1.434-.517L8.791 26.633H2.247A2.246 2.246 0 0 1 0 24.384v-8.953a2.248 2.248 0 0 1 2.247-2.248h6.544L21.078 3.003a2.247 2.247 0 1 1 3.682 1.73l-.001 30.35zm8.637-3.512a2.245 2.245 0 0 1-1.75-.652l-.301-.301a2.246 2.246 0 0 1-.217-2.928 12.969 12.969 0 0 0 2.57-7.78c0-3.036-1.008-5.883-2.916-8.234a2.246 2.246 0 0 1 .155-3.005l.3-.3a2.198 2.198 0 0 1 1.701-.655 2.25 2.25 0 0 1 1.628.821c2.648 3.24 4.046 7.173 4.046 11.373a17.85 17.85 0 0 1-3.577 10.766c-.39.522-.989.85-1.64.895zm9.291 6.946a2.25 2.25 0 0 1-3.307.139l-.295-.295a2.248 2.248 0 0 1-.13-3.036 23.99 23.99 0 0 0 5.62-15.416 23.924 23.924 0 0 0-6.018-15.876 2.248 2.248 0 0 1 .09-3.076l.296-.295a2.188 2.188 0 0 1 1.656-.66 2.247 2.247 0 0 1 1.615.753 28.815 28.815 0 0 1 7.274 19.154 28.876 28.876 0 0 1-6.8 18.608z"/>
  </symbol>
  <symbol id="microphone-off-inactive" viewBox="0 0 40 40">
    <path fill="#030616" fill-opacity=".1" stroke="#FFF" stroke-opacity=".08" d="M5.128.5C3.578.5 2.94.623 2.282.975A3.135 3.135 0 0 0 .975 2.282C.623 2.941.5 3.578.5 5.128v29.744c0 1.55.123 2.187.475 2.846a3.135 3.135 0 0 0 1.307 1.307c.659.352 1.296.475 2.846.475h29.744c1.55 0 2.187-.123 2.846-.475a3.135 3.135 0 0 0 1.307-1.307c.352-.659.475-1.296.475-2.846V5.128c0-1.55-.123-2.187-.475-2.846A3.135 3.135 0 0 0 37.718.975C37.059.623 36.422.5 34.872.5H5.128z"/>
    <g transform="translate(13.095 11.957)">
      <path id="micoff" d="M2.65 9.675l-1.033 1.034a5.751 5.751 0 0 1-.43-2.191v-1.31a.63.63 0 0 1 .194-.461.63.63 0 0 1 .461-.195.63.63 0 0 1 .46.195.63.63 0 0 1 .195.46v1.311c0 .362.051.747.154 1.157zm4.434 2.119c-.376 0-.747-.065-1.116-.194l-.983.982a4.445 4.445 0 0 0 2.099.523c1.262 0 2.343-.45 3.24-1.347.897-.897 1.346-1.977 1.346-3.24v-1.31a.63.63 0 0 1 .195-.461.63.63 0 0 1 .46-.195.63.63 0 0 1 .461.195.63.63 0 0 1 .195.46v1.311c0 1.509-.504 2.82-1.51 3.937-1.007 1.116-2.251 1.755-3.732 1.92v1.35h2.62a.63.63 0 0 1 .462.195.63.63 0 0 1 .194.461.63.63 0 0 1-.194.46.63.63 0 0 1-.461.195H3.808a.63.63 0 0 1-.461-.194.63.63 0 0 1-.195-.461.63.63 0 0 1 .195-.46.63.63 0 0 1 .46-.195H6.43v-1.352a5.627 5.627 0 0 1-2.406-.83l-2.6 2.601a.323.323 0 0 1-.472 0l-.84-.84a.324.324 0 0 1 0-.47L12.746 2.2a.323.323 0 0 1 .471 0l.84.84a.324.324 0 0 1 0 .47L10.36 7.209v1.31c0 .901-.321 1.673-.963 2.314a3.155 3.155 0 0 1-2.313.962zM8.973.604c.563.403.96.922 1.192 1.556L3.808 8.518V3.276c0-.9.32-1.672.962-2.314A3.155 3.155 0 0 1 7.084 0C7.78 0 8.41.201 8.973.604z"/> 
    </g>
  </symbol>
  <symbol id="microphone-off-active" viewBox="0 0 40 40">
    <path fill="#F05E83" fill-opacity="1" stroke="#FFF" stroke-opacity=".08" d="M5.128.5C3.578.5 2.94.623 2.282.975A3.135 3.135 0 0 0 .975 2.282C.623 2.941.5 3.578.5 5.128v29.744c0 1.55.123 2.187.475 2.846a3.135 3.135 0 0 0 1.307 1.307c.659.352 1.296.475 2.846.475h29.744c1.55 0 2.187-.123 2.846-.475a3.135 3.135 0 0 0 1.307-1.307c.352-.659.475-1.296.475-2.846V5.128c0-1.55-.123-2.187-.475-2.846A3.135 3.135 0 0 0 37.718.975C37.059.623 36.422.5 34.872.5H5.128z"/>
    <g transform="translate(13.095 11.957)">
      <path id="micoff-active" d="M2.65 9.675l-1.033 1.034a5.751 5.751 0 0 1-.43-2.191v-1.31a.63.63 0 0 1 .194-.461.63.63 0 0 1 .461-.195.63.63 0 0 1 .46.195.63.63 0 0 1 .195.46v1.311c0 .362.051.747.154 1.157zm4.434 2.119c-.376 0-.747-.065-1.116-.194l-.983.982a4.445 4.445 0 0 0 2.099.523c1.262 0 2.343-.45 3.24-1.347.897-.897 1.346-1.977 1.346-3.24v-1.31a.63.63 0 0 1 .195-.461.63.63 0 0 1 .46-.195.63.63 0 0 1 .461.195.63.63 0 0 1 .195.46v1.311c0 1.509-.504 2.82-1.51 3.937-1.007 1.116-2.251 1.755-3.732 1.92v1.35h2.62a.63.63 0 0 1 .462.195.63.63 0 0 1 .194.461.63.63 0 0 1-.194.46.63.63 0 0 1-.461.195H3.808a.63.63 0 0 1-.461-.194.63.63 0 0 1-.195-.461.63.63 0 0 1 .195-.46.63.63 0 0 1 .46-.195H6.43v-1.352a5.627 5.627 0 0 1-2.406-.83l-2.6 2.601a.323.323 0 0 1-.472 0l-.84-.84a.324.324 0 0 1 0-.47L12.746 2.2a.323.323 0 0 1 .471 0l.84.84a.324.324 0 0 1 0 .47L10.36 7.209v1.31c0 .901-.321 1.673-.963 2.314a3.155 3.155 0 0 1-2.313.962zM8.973.604c.563.403.96.922 1.192 1.556L3.808 8.518V3.276c0-.9.32-1.672.962-2.314A3.155 3.155 0 0 1 7.084 0C7.78 0 8.41.201 8.973.604z"/> 
    </g>
  </symbol>
  <symbol id="microphone-on-active" viewBox="0 0 40 40">
    <path id="micon" d="M10.831 14.45c-.9 0-1.672-.322-2.313-.963a3.155 3.155 0 0 1-.963-2.314V5.931c0-.9.32-1.672.963-2.313a3.155 3.155 0 0 1 2.313-.963c.901 0 1.673.321 2.314.963.642.641.962 1.412.962 2.313v5.242c0 .901-.32 1.673-.962 2.314a3.155 3.155 0 0 1-2.314.962zm5.703-5.048a.63.63 0 0 1 .195.46v1.311c0 1.509-.504 2.82-1.51 3.937-1.008 1.116-2.251 1.755-3.732 1.92v1.35h2.62a.63.63 0 0 1 .461.195.63.63 0 0 1 .195.461.63.63 0 0 1-.195.46.63.63 0 0 1-.46.195H7.554a.63.63 0 0 1-.46-.194.63.63 0 0 1-.195-.461.63.63 0 0 1 .194-.46.63.63 0 0 1 .461-.195h2.621v-1.352c-1.481-.164-2.725-.803-3.732-1.92-1.006-1.115-1.51-2.427-1.51-3.936v-1.31a.63.63 0 0 1 .195-.46.63.63 0 0 1 .46-.195.63.63 0 0 1 .461.194.63.63 0 0 1 .195.46v1.311c0 1.263.448 2.343 1.346 3.24.897.898 1.978 1.347 3.24 1.347 1.263 0 2.343-.449 3.24-1.346.898-.898 1.347-1.978 1.347-3.24V9.862a.63.63 0 0 1 .194-.46.63.63 0 0 1 .461-.195c.178 0 .331.064.46.194z"/>
    <path fill="#F05E83" stroke="#FFF" stroke-opacity=".08" d="M5.128.5C3.578.5 2.94.623 2.282.975A3.135 3.135 0 0 0 .975 2.282C.623 2.941.5 3.578.5 5.128v29.744c0 1.55.123 2.187.475 2.846a3.135 3.135 0 0 0 1.307 1.307c.659.352 1.296.475 2.846.475h29.744c1.55 0 2.187-.123 2.846-.475a3.135 3.135 0 0 0 1.307-1.307c.352-.659.475-1.296.475-2.846V5.128c0-1.55-.123-2.187-.475-2.846A3.135 3.135 0 0 0 37.718.975C37.059.623 36.422.5 34.872.5H5.128z"/>
    <g transform="translate(9.302 9.302)">
      <use fill="#fff" fill-rule="nonzero" xlink:href="#micon"/>
    </g>
  </symbol>
  <symbol id="microphone-on-inactive" viewBox="0 0 40 40">
    <path fill="#030616" fill-opacity=".1" stroke="#FFF" stroke-opacity=".08" d="M5.128.5C3.578.5 2.94.623 2.282.975A3.135 3.135 0 0 0 .975 2.282C.623 2.941.5 3.578.5 5.128v29.744c0 1.55.123 2.187.475 2.846a3.135 3.135 0 0 0 1.307 1.307c.659.352 1.296.475 2.846.475h29.744c1.55 0 2.187-.123 2.846-.475a3.135 3.135 0 0 0 1.307-1.307c.352-.659.475-1.296.475-2.846V5.128c0-1.55-.123-2.187-.475-2.846A3.135 3.135 0 0 0 37.718.975C37.059.623 36.422.5 34.872.5H5.128z"/>
    <g transform="translate(9.302 9.302)">
      <use fill="#fff" fill-rule="nonzero" xlink:href="#micon"/>
    </g>
  </symbol>
  <symbol id="balloon" viewBox="0 0 48 43">
    <path fill="#030616" fill-opacity=".1" fill-rule="evenodd" stroke="#FFF" stroke-opacity=".08" d="M47.5 5.128v32.744c0 1.642-.153 2.244-.475 2.846a3.142 3.142 0 0 1-1.307 1.307c-.602.322-1.204.475-2.846.475H10.128c-1.642 0-2.244-.153-2.846-.475a3.142 3.142 0 0 1-1.307-1.307c-.322-.602-.475-1.204-.475-2.846V24.191L1.118 22 5.5 19.809V5.128c0-1.642.153-2.244.475-2.846A3.142 3.142 0 0 1 7.282.975C7.884.653 8.486.5 10.128.5h32.744c1.642 0 2.244.153 2.846.475a3.142 3.142 0 0 1 1.307 1.307c.322.602.475 1.204.475 2.846z"/>
  </symbol>
  <symbol id="vip" viewBox="0 0 58 58">
    <path id="a" d="M15.63 14.093h18.111V5.946l-3.737 2.6-5.318-4.668-5.318 4.668-3.737-2.6v8.147zm.15 3.388a9.564 9.564 0 0 0-.703 3.603 9.617 9.617 0 0 0 7.578 9.39l.208.043a9.639 9.639 0 0 0 1.823.175c.605 0 1.216-.058 1.815-.174l.216-.044a9.655 9.655 0 0 0 5.41-3.32 9.617 9.617 0 0 0 2.168-6.07c0-1.238-.237-2.45-.703-3.603l-.191-.472H15.97l-.192.472zm.639 15.127c-1.539 0-2.63.274-3.338.838-.853.68-1.286 1.937-1.323 3.84v.034c.062 2.498 1.543 5.424 4.171 8.24 2.395 2.567 5.477 4.767 8.457 6.039l.299.127.298-.13c2.968-1.283 6.04-3.58 8.425-6.303 2.506-2.86 3.992-5.84 4.185-8.39l.004-.052-.003-.05c-.099-1.637-.525-2.734-1.303-3.355-.707-.564-1.799-.838-3.337-.838-1.404 0-3.16.221-5.524.696l-.015.004c-.16.035-.308.065-.453.092l-.819.171v8.447h-2.915v-8.446l-.817-.172c-.146-.026-.299-.058-.454-.092l-.015-.004c-2.363-.475-4.118-.696-5.523-.696zm30.036 22.247a21.788 21.788 0 0 0-5.688-13.981l-.806-.882-.452 1.105c-.842 2.06-2.157 4.118-3.909 6.117-2.951 3.368-6.744 6.08-10.407 7.44l-.507.188-.507-.188c-3.527-1.309-7.358-3.912-10.247-6.963-1.967-2.077-3.394-4.227-4.242-6.39l-.45-1.145-.818.919a21.815 21.815 0 0 0-5.505 13.78H0a24.6 24.6 0 0 1 2.245-9.615 24.62 24.62 0 0 1 6.386-8.448l.234-.2.027-.308c.2-2.33.975-4.003 2.372-5.117.812-.648 1.795-1.07 3.004-1.289l1.216-.22-.751-.982a12.396 12.396 0 0 1-2.571-7.592c0-1.215.175-2.42.522-3.58l.031-.107V.367L19.16 4.85 24.686 0l5.526 4.85L36.657.367v17.032l.031.106c.346 1.161.522 2.366.522 3.579 0 2.767-.89 5.393-2.57 7.592l-.752.982 1.216.22c1.209.22 2.191.641 3.004 1.29 1.397 1.114 2.173 2.787 2.372 5.115l.026.308.235.201a24.62 24.62 0 0 1 6.385 8.448 24.603 24.603 0 0 1 2.246 9.615h-2.917z"/>
  </symbol>

  <symbol id="up" viewBox="0 0 58 58">
  <g transform="translate(6 16)">
    <path id="upa" transform="matrix(0 -1 -1 0 36.479 36.479)" stroke="#FFF" fill="fff" d="M35.9 12.958l.1.102-20.782 21.127a2.438 2.438 0 0 1-3.48-.003 2.53 2.53 0 0 1 .004-3.545l17.392-17.681L11.742-4.724a2.53 2.53 0 0 1-.004-3.544 2.438 2.438 0 0 1 3.48-.004L36 12.856l-.1.102z"/>
  </g>
  </symbol>
</svg>