<!-- group per page -->
<svg xmlns="http://www.w3.org/2000/svg" xmlns:xlink="http://www.w3.org/1999/xlink">
  <symbol id="close" fill-rule="nonzero" mask="url(#b)">
    <path id="a" d="M13.572.198a.733.733 0 01.013 1.036L7.893 7.071l5.35 5.488a.733.733 0 010 1.024.696.696 0 01-.997 0l-5.35-5.489-5.35 5.489a.696.696 0 01-.997 0 .733.733 0 010-1.024L5.9 7.071.209 1.234a.733.733 0 010-1.024.696.696 0 01.997 0l5.69 5.838L12.587.21a.696.696 0 01.985-.012z"/>
  </symbol>
  <symbol id="support" fill-rule="nonzero" mask="url(#b)">
    <path id="a" d="M16.254 7.605v-.769c0-1.84-.651-3.55-1.832-4.82C13.212.715 11.548 0 9.733 0H9.1c-1.815 0-3.48.714-4.69 2.017-1.18 1.269-1.831 2.979-1.831 4.82v.768a2.76 2.76 0 0 0-2.572 2.748v1.202a2.756 2.756 0 0 0 2.752 2.752h1.55a.506.506 0 0 0 .505-.504V8.1a.506.506 0 0 0-.504-.504h-.723v-.76c0-3.324 2.37-5.829 5.509-5.829h.634c3.143 0 5.508 2.505 5.508 5.828v.76h-.722a.506.506 0 0 0-.504.505v5.697c0 .278.226.505.504.505h.706c-.206 2.63-2.017 3.239-2.858 3.378a1.773 1.773 0 0 0-1.684-1.223h-1.26a1.772 1.772 0 0 0 0 3.542h1.264c.815 0 1.5-.555 1.706-1.303a4.77 4.77 0 0 0 1.71-.584c.912-.533 1.991-1.621 2.134-3.815a2.755 2.755 0 0 0 2.584-2.748V10.35a2.745 2.745 0 0 0-2.563-2.744zm-12.441 5.69H2.767a1.745 1.745 0 0 1-1.744-1.745V10.35c0-.962.782-1.744 1.744-1.744h1.046v4.69zm6.87 5.697H9.418a.76.76 0 1 1 0-1.521h1.265a.76.76 0 1 1 0 1.52zm7.13-7.442c0 .963-.781 1.744-1.744 1.744h-1.046V8.605h1.046c.963 0 1.744.782 1.744 1.744v1.201z"/>
  </symbol>
  <symbol id="confirmed-email" fill="none">
      <circle cx="12.238" cy="60.933" r="1" fill="#4786D1"/>
      <circle cx="85.551" cy="30.424" r="1" fill="#4786D1" transform="rotate(-80.78 85.55 30.424)"/>
      <circle cx="45.403" cy="36.357" r="33.808" fill="#ECF3FE"/>
      <path fill="#232323" d="M77.778 66.885v-.008-.01-.074a.557.557 0 00-.006-.074v-.032-.02a.399.399 0 00-.008-.048.372.372 0 00-.007-.05c-.007-.036-.012-.07-.02-.104l-.02-.087-.065-.29-6.171-27.594c-.007-.034-.017-.07-.026-.103a.641.641 0 00-.022-.074.948.948 0 00-.03-.085c-.011-.029-.017-.047-.027-.07l-.029-.069a2.13 2.13 0 00-.139-.257v-.004a2.228 2.228 0 00-.447-.494 1.868 1.868 0 00-.26-.177c-.024-.012-.058-.034-.092-.05l-.015-.006-.122-.057-3.108-1.425-4.407-19.734a3.67 3.67 0 00-4.382-2.782l-39.247 8.764a3.67 3.67 0 00-2.782 4.382l4.406 19.733-2.21 2.613-.086.102a2.042 2.042 0 00-.395 1.722l6.213 27.81.015.071.02.087c.011.052.024.102.04.151l.011.035.008.025.005.015c0 .005.004.01.006.014l.032.09c0 .004.004.01.007.015l.015.033.016.036.009.018.008.016c.014.032.03.062.047.093a.318.318 0 01.01.019l.023.038.024.041.062.094.003.003c.015.02.03.04.046.057l.019.027.063.078.01.01.016.017.041.045.019.016c.026.026.051.052.078.077l.016.016c.027.025.057.047.083.069l.042.033c.02.015.04.031.061.045l.026.016c.04.027.08.052.12.076l.038.023.05.027c.066.035.135.066.205.093l.035.013.052.02.082.027.057.013.064.015.062.014c.033.006.067.01.1.015h.018c.013 0 .025.006.038.007l.05.005h.027c.044.004.087.005.13.005H26.358c.026 0 .052 0 .079-.004h.048c.016 0 .032-.003.047-.005H26.57l.076-.011.107-.021L76.06 68.936l.11-.024a3.24 3.24 0 00.107-.028l.073-.021c.008 0 .014-.005.02-.007l.036-.012.019-.006.039-.014.006-.003.048-.021a.334.334 0 00.04-.016l.007-.003.052-.025.113-.057h.004l.027-.016.034-.02c.006 0 .014-.009.02-.012l.016-.01.026-.02c.078-.052.153-.109.224-.17l.006-.005a.348.348 0 00.034-.032.247.247 0 00.03-.029c.013-.011.026-.024.038-.037l.016-.017.017-.018.057-.062a.072.072 0 01.008-.01l.034-.044.032-.04.012-.015.01-.012a1.463 1.463 0 00.053-.077l.019-.03.02-.031a.88.88 0 00.037-.063c.012-.022.025-.044.036-.067a.825.825 0 00.02-.039c.018-.034.034-.07.05-.104.005-.016.012-.031.018-.047a.45.45 0 00.011-.03c.01-.024.02-.048.027-.072a.399.399 0 00.015-.046l.015-.048.013-.049c.013-.047.023-.097.032-.144v-.015c0-.015.005-.031.008-.049l.008-.057v-.005c0-.016.004-.032.005-.048l.004-.043c.002-.015 0-.015 0-.022v-.012-.065a.19.19 0 000-.036.062.062 0 000-.02c.008-.01.012-.016.012-.026z" opacity=".1"/>
      <path fill="#F9C067" d="M73.207 35.493l6.245 27.971c.008.035.014.069.02.105a.498.498 0 01.008.05c0 .014.005.03.007.047V63.717c.004.025.004.05.006.076.003.025 0 .049 0 .073v.035a.117.117 0 010 .027v.101a.023.023 0 010 .012c-.003.038-.005.076-.01.114a.01.01 0 010 .006c0 .018-.005.038-.008.057l-.008.05v.013c-.01.048-.019.098-.032.145a1.58 1.58 0 01-.013.05c-.004.016-.01.03-.015.047a1.276 1.276 0 01-.05.138c-.006.02-.015.038-.02.057l-.057.124-.047.087c-.016.03-.034.057-.051.085a.448.448 0 01-.05.073.963.963 0 01-.03.043c0 .004-.006.008-.009.012a1.453 1.453 0 01-.086.11c-.022.023-.043.048-.067.072l-.022.024c-.007.007-.025.026-.038.037l-.03.03-.034.03a1.82 1.82 0 01-.256.195l-.016.011-.02.011a.872.872 0 01-.065.038.924.924 0 01-.114.057l-.057.029a.323.323 0 01-.038.015l-.049.021s-.004 0-.006.004l-.04.013c-.006 0-.012.005-.018.006l-.035.013c-.006 0-.013.005-.02.006l-.074.022a2.24 2.24 0 01-.107.027l-49.42 11.033c-.035.008-.072.014-.108.02l-.075.012a.703.703 0 01-.085.009 1.213 1.213 0 01-.203.009c-.042 0-.085 0-.128-.006l-.076-.01a2.262 2.262 0 01-.344-.067l-.083-.028a2.07 2.07 0 01-1.023-.763l-.062-.094c-.02-.03-.038-.064-.057-.098a4.314 4.314 0 01-.095-.197l-.006-.014a3.246 3.246 0 01-.04-.104l-.022-.075c-.016-.049-.03-.099-.041-.15l-6.245-27.97a2.041 2.041 0 01.384-1.709l.01-.013.087-.102a2.033 2.033 0 011.073-.627L70.76 33.936a1.275 1.275 0 01.17-.03c.046-.006.094-.012.139-.015h.183a2.239 2.239 0 01.283.025c.063.01.126.024.188.041.034.008.068.018.102.029.058.017.115.039.17.064l.122.057.015.006a.93.93 0 01.09.05 1.732 1.732 0 01.342.245c.112.097.21.206.296.325.025.032.048.066.07.1v.005c.036.057.068.114.098.17l.042.087c.013.029.02.045.028.069.009.023.02.046.028.07a.754.754 0 01.029.085.641.641 0 01.022.074.552.552 0 01.03.1z"/>
      <path fill="#A36017" d="M72.934 34.836L19.755 46.709c.047-.363.19-.707.416-.996l.01-.013.087-.102 20.464-24.204a2.074 2.074 0 012.45-.547l28.812 13.202.122.057.014.007a.93.93 0 01.092.05 1.732 1.732 0 01.342.245c.11.096.21.205.295.325.025.032.048.066.07.1a.032.032 0 00.005.003z"/>
      <path fill="#FFF" d="M73.882 54.999L27.474 65.36l-9.402-42.109a3.67 3.67 0 012.783-4.382l39.244-8.762a3.67 3.67 0 014.381 2.783l9.402 42.108z"/>
      <path fill="#E4ECF9" d="M26.594 31.604l33.73-7.533a1.08 1.08 0 01.47 2.106l-33.73 7.534a1.08 1.08 0 01-.47-2.107zM27.598 36.104l33.731-7.533a1.08 1.08 0 11.47 2.106l-33.73 7.534a1.08 1.08 0 11-.47-2.107zM62.987 35.14L28.89 42.755a.893.893 0 01-1.063-.674l-.084-.37a.893.893 0 01.675-1.063l34.1-7.614a.893.893 0 011.063.675l.082.369a.892.892 0 01-.675 1.064zM29.609 45.104l33.73-7.533a1.08 1.08 0 11.47 2.106l-33.73 7.534a1.08 1.08 0 11-.47-2.107zM64.997 44.141l-34.1 7.614a.893.893 0 01-1.063-.675l-.082-.368a.893.893 0 01.675-1.064l34.101-7.613a.892.892 0 011.062.674l.083.37a.893.893 0 01-.676 1.062z"/>
      <path fill="#52D1BD" d="M39.937 22.318L25.066 25.64a.893.893 0 01-1.063-.675l-.082-.369a.892.892 0 01.674-1.064l14.872-3.32a.893.893 0 011.063.674l.082.37a.892.892 0 01-.675 1.06z"/>
      <path fill="#F4B545" d="M49.789 56.193a1.337 1.337 0 01-.225.288L28.59 76.923l-.11.025c-.196.044-.398.059-.599.043l-.082-.007a2.03 2.03 0 01-.946-.362 1.884 1.884 0 01-.3-.255c-.024-.023-.044-.047-.066-.07a2.038 2.038 0 01-.455-.9L19.788 47.42a2.041 2.041 0 01.384-1.71l.01-.013.087-.102a2.033 2.033 0 011.073-.627l.456-.102 2.43.84 22.401 7.756.843.292 1.607.556c.116.04.226.096.327.165.55.39.715 1.131.383 1.717z"/>
      <path fill="#F4B545" d="M73.207 35.493l6.245 27.971c.008.035.014.069.02.105a.498.498 0 01.008.05c0 .014.005.03.007.047V63.717c.004.025.004.05.006.076.003.025 0 .049 0 .073v.01a.09.09 0 010 .025.088.088 0 010 .027v.101a.847.847 0 01-.01.132c0 .018-.004.036-.008.057l-.008.05v.013c-.01.048-.019.098-.032.145a1.58 1.58 0 01-.013.05c-.004.016-.01.03-.015.047a1.276 1.276 0 01-.05.138c-.006.02-.015.038-.02.057-.02.044-.04.084-.057.124l-.047.087c-.016.03-.034.057-.051.085a.448.448 0 01-.05.073.963.963 0 01-.03.043c0 .004-.006.008-.009.012a1.453 1.453 0 01-.086.11c-.022.023-.043.048-.067.072l-.022.024c-.007.007-.025.026-.038.037l-.03.03-.034.03a1.82 1.82 0 01-.256.195l-.016.011-.02.011a.872.872 0 01-.065.038.924.924 0 01-.114.057l-.057.029a.323.323 0 01-.038.015l-.049.021h-.004l-.041.016c-.007 0-.013.005-.02.006l-.034.013c-.006 0-.013.005-.02.006l-.074.022a2.24 2.24 0 01-.107.027l-.11.024-27.678-9.576a1.31 1.31 0 01-.707-1.88c.06-.106.136-.202.223-.286l1.217-1.187.638-.622 16.98-16.545 1.842-1.793.456-.102a1.275 1.275 0 01.17-.03c.046-.007.094-.012.14-.016h.183c.049 0 .097.004.146.008a1.628 1.628 0 01.325.059 1.367 1.367 0 01.272.092l.121.057.015.007a.93.93 0 01.091.05 1.732 1.732 0 01.342.245c.111.096.21.205.296.325.024.032.047.066.07.1v.004c.036.057.067.114.097.171l.042.086c.013.03.02.045.028.07.009.023.02.046.028.07a.754.754 0 01.03.085.641.641 0 01.02.073.437.437 0 01.03.092z"/>
      <path fill="#474747" d="M79.368 63.086l.065.29c.258 1.154-.43 2.29-1.535 2.536L28.481 76.946c-1.105.247-2.21-.488-2.467-1.642l-.065-.29 21.686-22.4a2.393 2.393 0 012.583-.576l29.15 11.048z" opacity=".29"/>
      <path fill="#F9C067" d="M79.39 63.186l.062.278a2.051 2.051 0 01-1.554 2.45L28.481 76.947a2.051 2.051 0 01-2.45-1.555l-.062-.278 21.84-21.696a2.48 2.48 0 012.583-.577L79.39 63.186z"/>
      <circle cx="71.698" cy="18.065" r="11.368" fill="#232323" opacity=".1" transform="rotate(-13.28 71.698 18.065)"/>
      <circle cx="73.188" cy="16.328" r="11.368" fill="#52D1BD" transform="rotate(-45 73.188 16.328)"/>
      <path fill="#F9F9F9" d="M75.51 13.526l.356-.766 1.914.414-2.227 4.958c-.139.313-.22.524-.242.63a.388.388 0 00.027.279c.036.07.101.12.178.137.262.057.636-.04 1.122-.292.486-.251.947-.638 1.382-1.158a4.342 4.342 0 00.901-3.533 3.904 3.904 0 00-.665-1.539c-.333-.467-.783-.873-1.349-1.217-.565-.345-1.235-.601-2.008-.769a7.41 7.41 0 00-2.235-.16 5.603 5.603 0 00-1.924.512 5.083 5.083 0 00-1.555 1.155 6.32 6.32 0 00-1.029 1.493 7.487 7.487 0 00-.627 1.784 5.307 5.307 0 00.004 2.387 4.72 4.72 0 001.068 2.045c.531.603 1.222 1.099 2.072 1.488.85.39 1.851.648 3.005.775.917.088 1.719.049 2.405-.117a4.575 4.575 0 001.85-.92l1.543.334c-.359.459-.792.855-1.281 1.172a5.702 5.702 0 01-1.64.72 7.543 7.543 0 01-1.957.24 10.635 10.635 0 01-2.244-.258c-1.189-.257-2.225-.644-3.11-1.162-.885-.518-1.59-1.143-2.114-1.873a5.846 5.846 0 01-1.02-2.422c-.157-.886-.13-1.823.084-2.809a8.178 8.178 0 011.14-2.774 6.785 6.785 0 014.684-3.047c1.012-.17 2.078-.135 3.2.108.86.176 1.685.497 2.438.948.675.405 1.26.943 1.717 1.583.435.615.73 1.317.864 2.058a5.986 5.986 0 01-.062 2.374 5.604 5.604 0 01-2.119 3.286 4.942 4.942 0 01-1.78.845 4.325 4.325 0 01-1.985.022c-.392-.084-.682-.217-.87-.399-.19-.18-.289-.423-.298-.728-.481.316-1.045.48-1.62.473a2.766 2.766 0 01-1.555-.496 2.697 2.697 0 01-1.014-1.33c-.209-.567-.235-1.215-.077-1.945.17-.772.503-1.5.974-2.135a4.73 4.73 0 011.783-1.504 3.311 3.311 0 012.193-.262c.87.19 1.439.655 1.704 1.395zm-4.778 2.897c-.125.58-.1 1.051.074 1.413.157.348.474.598.85.67.456.098.895.003 1.317-.285.423-.29.784-.69 1.083-1.204.285-.48.492-1.003.615-1.548.053-.233.072-.473.057-.712a1.68 1.68 0 00-.151-.598c-.08-.174-.2-.326-.352-.444a1.33 1.33 0 00-.543-.243c-.422-.093-.84-.01-1.254.249-.413.258-.768.632-1.065 1.12a5.097 5.097 0 00-.63 1.582z"/>
      <path fill="#F4B545" d="M16.495 37.117h-.021a11.531 11.531 0 01-1.892-.269.348.348 0 01.156-.678c.585.133 1.18.218 1.778.253a.348.348 0 01-.021.695v-.001zm1.853-.018a.348.348 0 01-.027-.696c.604-.047 1.203-.13 1.797-.247a.348.348 0 11.134.684c-.62.123-1.247.21-1.877.259h-.027zm3.635-.71a.348.348 0 01-.103-.68c.57-.176 1.146-.385 1.71-.622a.348.348 0 01.268.642c-.586.245-1.183.462-1.775.645a.335.335 0 01-.1.016zm-9.078-.126a.35.35 0 01-.146-.032 7.617 7.617 0 01-1.646-1.025.348.348 0 01.443-.537c.456.373.959.686 1.495.931a.348.348 0 01-.146.663zm-2.814-2.347a.348.348 0 01-.285-.15 9.05 9.05 0 01-.656-1.116.346.346 0 01-.263-.034 11.152 11.152 0 01-1.57-1.094.348.348 0 01.443-.537c.358.298.735.573 1.129.822a.348.348 0 01.645 0c.224.55.506 1.074.842 1.564a.348.348 0 01-.285.545zm1.818-.385a4.935 4.935 0 01-1.233-.166.348.348 0 01.175-.673c.603.156 1.173.184 1.681.084a.349.349 0 11.136.684 3.9 3.9 0 01-.76.071zm2.34-.878a.348.348 0 01-.219-.618 4.546 4.546 0 001.106-1.31.349.349 0 01.608.341 5.263 5.263 0 01-1.276 1.51.349.349 0 01-.217.077h-.002zm-5.512-2.156a.348.348 0 01-.345-.307 5.893 5.893 0 01-.042-.695c-.001-.43.051-.858.157-1.274a.348.348 0 01.674.17c-.091.36-.137.73-.135 1.101 0 .205.012.41.037.613a.351.351 0 01-.346.39v.002zm-2.545-.171a.348.348 0 01-.256-.114 15.419 15.419 0 01-1.196-1.474.348.348 0 01.566-.404c.351.492.733.962 1.144 1.406a.349.349 0 01-.256.584l-.002.002zm9.762-.846h-.014a.348.348 0 01-.334-.361v-.12c0-.07 0-.141-.007-.213a3.686 3.686 0 00-.35-1.302.348.348 0 01.63-.297c.234.488.375 1.013.417 1.551.007.088.01.174.01.26 0 .05 0 .099-.003.148a.348.348 0 01-.349.334zM4.046 27.308a.348.348 0 01-.308-.184 12.19 12.19 0 01-.675-1.504c-.03-.082-.057-.165-.088-.248a.348.348 0 01.66-.222 11.323 11.323 0 00.718 1.647.348.348 0 01-.307.513v-.002zm5.608-.312a.348.348 0 01-.28-.554c.425-.578.935-1.04 1.475-1.337a.348.348 0 11.336.61c-.453.249-.885.642-1.251 1.14a.348.348 0 01-.281.141zm4.804-.782a.348.348 0 01-.228-.085c-.452-.387-.963-.632-1.477-.71a.349.349 0 11.105-.69c.643.097 1.275.4 1.823.87a.348.348 0 01-.227.612l.004.003zM2.866 23.808a.348.348 0 01-.342-.295c-.091-.597-.137-1.2-.137-1.804v-.1a.348.348 0 01.348-.345.348.348 0 01.345.35v.095c0 .569.042 1.136.128 1.698a.348.348 0 01-.291.4.337.337 0 01-.05.001zm.02-3.694a.348.348 0 01-.344-.403c.097-.626.233-1.245.408-1.853a.348.348 0 11.669.191c-.167.58-.297 1.17-.39 1.766a.348.348 0 01-.343.299zm1.011-3.562a.348.348 0 01-.321-.483c.242-.582.512-1.151.811-1.705a.348.348 0 01.613.33 17.772 17.772 0 00-.78 1.642.348.348 0 01-.323.216zm1.753-3.265a.349.349 0 01-.29-.54c.342-.517.717-1.026 1.11-1.524a.348.348 0 11.545.433c-.381.48-.74.976-1.075 1.476a.347.347 0 01-.29.155zm2.305-2.903a.348.348 0 01-.254-.583c.313-.335.643-.67.982-.993a.348.348 0 11.48.503c-.329.315-.65.64-.954.965a.348.348 0 01-.254.108z"/>
      <path fill="#232323" d="M26.46 2.088L0 1.044 5.443 6.889 4.02 15.659 10.221 12.009 12.859 14.826z" opacity=".1"/>
      <path fill="#46C1AA" d="M4.348 14.615L6.427 1.805 26.789 1.044z"/>
      <path fill="#52D1BD" d="M5.809 5.885c.107-.033 20.98-4.84 20.98-4.84L.33 0l5.48 5.885z"/>
      <path fill="#3CAF99" d="M7.668 7.889L4.348 14.615 14.626 8.565z"/>
      <path fill="#52D1BD" d="M7.668 7.889L13.187 13.782 26.789 1.044z"/>
      <path fill="#4786D1" d="M45.541 1.274l.966-.507a.298.298 0 01.432.316l-.184 1.074a.297.297 0 00.085.264l.781.761a.298.298 0 01-.165.51l-1.079.154a.296.296 0 00-.223.163l-.483.978a.299.299 0 01-.535 0l-.482-.978a.297.297 0 00-.224-.163l-1.08-.157a.299.299 0 01-.165-.508l.78-.762a.297.297 0 00.087-.263l-.186-1.073A.298.298 0 0144.3.769l.965.507c.087.045.19.044.277-.002z"/>
  </symbol>

</svg>
