<svg xmlns="http://www.w3.org/2000/svg" xmlns:xlink="http://www.w3.org/1999/xlink">
    <symbol id="send" viewBox="0 0 60 60">
        <path fill="#000" fill-opacity="0" d="M19 0L8 11" transform="translate(19 22)"/>
        <path stroke="#FFF" d="M19 0L8 11" transform="translate(19 22)"/>
        <path fill="#000" fill-opacity="0" d="M19 0L12 19 8 11 0 7z" transform="translate(19 22)"/>
        <path stroke="#FFF" stroke-linecap="square" d="M19 0L12 19 8 11 0 7z" transform="translate(19 22)"/>
    </symbol>
    <symbol id="emoticon" viewBox="0 0 40 40">
        <path fill="#000" fill-opacity="0" d="M14.51 2.49A8.5 8.5 0 112.49 14.51 8.5 8.5 0 0114.51 2.49" transform="translate(12 12)"/>
        <path stroke="#374163" stroke-linecap="square" d="M14.51 2.49A8.5 8.5 0 112.49 14.51 8.5 8.5 0 0114.51 2.49" transform="translate(12 12)"/>
        <path fill="#000" fill-opacity="0" d="M13 9c0 2.75-2.025 5-4.5 5S4 11.75 4 9h9z" transform="translate(12 12)"/>
        <path stroke="#374163" stroke-linecap="square" d="M13 9c0 2.75-2.025 5-4.5 5S4 11.75 4 9h9z" transform="translate(12 12)"/>
        <path fill="#000" fill-opacity="0" d="M13 7c0-1.1-.675-2-1.5-2S10 5.9 10 7" transform="translate(12 12)"/>
        <path stroke="#374163" stroke-linecap="square" d="M13 7c0-1.1-.675-2-1.5-2S10 5.9 10 7" transform="translate(12 12)"/>
        <path fill="#000" fill-opacity="0" d="M7 7c0-1.1-.675-2-1.5-2S4 5.9 4 7" transform="translate(12 12)"/>
        <path stroke="#374163" stroke-linecap="square" d="M7 7c0-1.1-.675-2-1.5-2S4 5.9 4 7" transform="translate(12 12)"/>
    </symbol>
    <symbol id="gallery" >
        <path d="M14.875.003C16.049.003 17 .954 17 2.128v8.542a2.125 2.125 0 01-2.125 2.125H2.125A2.125 2.125 0 010 10.67V2.128C0 .954.951.003 2.125.003zM6.041 7.888a.55.55 0 00-.63.038l-.03.023-4.51 2.99a1.283 1.283 0 001.254 1.049h4.332L8.76 9.582zm5.852.326a.546.546 0 00-.713.072l-3.545 3.702h7.24a1.282 1.282 0 001.253-1.048l-4.22-2.717-.015-.009zM14.875.853H2.125C1.422.853.85 1.439.85 2.143v7.784l4.047-2.68a1.402 1.402 0 011.592-.082l2.872 1.782 1.206-1.256a1.39 1.39 0 011.807-.18l3.776 2.425V2.142c0-.703-.572-1.29-1.275-1.29zm-8.063.527a2.592 2.592 0 110 5.183 2.592 2.592 0 010-5.183zm0 .85a1.741 1.741 0 100 3.483 1.741 1.741 0 000-3.483z"/>
    </symbol>
    <symbol id="king-icon">
        <path id="prefix__a" d="M4.85 4.374h5.621V1.845l-1.16.807-1.65-1.448-1.65 1.448-1.16-.807v2.529zm.047 1.051a2.985 2.985 0 002.134 4.033l.064.013a2.991 2.991 0 001.13 0l.067-.013a2.985 2.985 0 002.133-4.033l-.06-.146H4.957l-.059.146zm.199 4.695c-.478 0-.817.085-1.036.26-.265.211-.4.6-.411 1.192v.01c.02.775.479 1.683 1.295 2.558.743.796 1.7 1.479 2.624 1.873l.093.04.092-.04c.922-.399 1.875-1.112 2.615-1.957.778-.887 1.239-1.812 1.299-2.604l.001-.015-.001-.016c-.03-.508-.163-.848-.404-1.041-.22-.175-.558-.26-1.036-.26-.436 0-.98.068-1.714.216h-.005c-.05.012-.096.021-.14.03l-.255.053v2.621H7.21V10.42l-.254-.053a3.9 3.9 0 01-.14-.03h-.006c-.733-.148-1.277-.216-1.713-.216zm9.32 6.904a6.762 6.762 0 00-1.764-4.34l-.25-.273-.14.343c-.262.64-.67 1.278-1.214 1.899-.916 1.045-2.093 1.886-3.23 2.308l-.157.059-.157-.059c-1.095-.406-2.284-1.213-3.18-2.16-.61-.645-1.054-1.312-1.317-1.983l-.14-.356-.253.285a6.77 6.77 0 00-1.709 4.277H0a7.64 7.64 0 012.679-5.606l.072-.062.008-.096c.062-.722.303-1.242.737-1.587.252-.202.557-.332.932-.4l.377-.069-.233-.305a3.885 3.885 0 01-.636-3.467l.01-.033V.114l2 1.391L7.661 0l1.715 1.505 2-1.391V5.4l.01.033a3.887 3.887 0 01-.636 3.466l-.233.305.377.069c.376.068.68.198.933.4.433.345.674.865.736 1.587l.008.096.073.062a7.64 7.64 0 012.678 5.606h-.905z"/>
    </symbol>
    <symbol id="back" fill="none" fill-rule="evenodd">
      <path fill="#FFF" d="M29 21H17.14l3.63-4.36a1.001 1.001 0 1 0-1.54-1.28l-5 6a1.19 1.19 0 0 0-.09.15c0 .05 0 .08-.07.13A1 1 0 0 0 14 22a1 1 0 0 0 .07.36c0 .05 0 .08.07.13.026.052.056.102.09.15l5 6a1 1 0 0 0 1.41.13 1 1 0 0 0 .13-1.41L17.14 23H29a1 1 0 0 0 0-2z"/>
    </symbol>
    <symbol id="info" fill="none" fill-rule="evenodd">
      <path fill="#FFF" id="prefix__a" d="M12 0c3.205 0 6.219 1.248 8.485 3.515A11.921 11.921 0 0124 12c0 3.205-1.248 6.219-3.515 8.485A11.921 11.921 0 0112 24a11.921 11.921 0 01-8.485-3.515A11.921 11.921 0 010 12c0-3.205 1.248-6.219 3.515-8.485A11.921 11.921 0 0112 0zm0 1.429C6.17 1.429 1.429 6.17 1.429 12c0 5.83 4.742 10.571 10.571 10.571 5.83 0 10.571-4.742 10.571-10.571C22.571 6.17 17.83 1.429 12 1.429zm0 8.192c.686 0 1.241.555 1.241 1.241v5.71a1.241 1.241 0 11-2.482 0v-5.71c0-.686.555-1.241 1.241-1.241zm0-3.414a1.241 1.241 0 110 2.483 1.241 1.241 0 010-2.483z"/>
    </symbol>


</svg>
