<!-- group per page -->
<svg xmlns="http://www.w3.org/2000/svg" xmlns:xlink="http://www.w3.org/1999/xlink">
  <symbol id="info" fill-rule="nonzero" mask="url(#b)">
    <path id="a" d="M19.31 0c10.648 0 19.31 8.662 19.31 19.31 0 10.648-8.662 19.31-19.31 19.31C8.663 38.62 0 29.959 0 19.31 0 8.662 8.663 0 19.31 0zm0 2.377c-9.337 0-16.933 7.596-16.933 16.933 0 9.338 7.596 16.934 16.933 16.934 9.338 0 16.934-7.596 16.934-16.934 0-9.337-7.596-16.933-16.934-16.933zm0 14.175c.762 0 1.38.529 1.38 1.182v10.05c0 .652-.618 1.182-1.38 1.182-.761 0-1.379-.53-1.379-1.183V17.734c0-.653.618-1.182 1.38-1.182zm-.344-6.897a1.724 1.724 0 1 1 0 3.448 1.724 1.724 0 0 1 0-3.448z"/>
  </symbol>
  <symbol id="earnings" fill="#FFF" fill-rule="nonzero" mask="url(#b)">
    <path d="M39.355 28.387h-7.097a.643.643 0 0 0-.456.19l-4.516 4.515a.643.643 0 0 0-.19.456v1.29H21.29a.643.643 0 0 0-.456.19l-.834.834-.834-.834a.643.643 0 0 0-.456-.19h-5.807v-1.29a.643.643 0 0 0-.189-.456l-4.516-4.516a.643.643 0 0 0-.456-.189H.645a.646.646 0 0 0-.645.645v6.452c0 .356.29.645.645.645h1.669l3.681 3.682c.121.121.286.189.457.189H18.71a.643.643 0 0 0 .456-.189l.834-.834.834.834c.12.121.285.189.456.189h12.258a.643.643 0 0 0 .457-.189l3.681-3.682h1.669c.356 0 .645-.29.645-.645v-6.452a.646.646 0 0 0-.645-.645zM18.443 38.71H6.719l-3.682-3.682a.643.643 0 0 0-.456-.19H1.29v-5.16h6.184l4.138 4.138v.756l-.912.912h-.756l-2.392-2.392-.912.913 2.58 2.58c.12.121.285.19.456.19h1.29a.643.643 0 0 0 .457-.19l.456-.456h6.563l.912.912v.756l-.912.913zm20.267-3.871h-1.29a.643.643 0 0 0-.457.189l-3.682 3.682H21.557l-.912-.913v-.756l.912-.912h6.563l.456.456c.12.121.285.19.456.19h1.29a.643.643 0 0 0 .457-.19l2.58-2.58-.912-.913-2.392 2.392H29.3l-.912-.912v-.756l4.138-4.139h6.185v5.162z"/>
    <path d="M14.194 22.58v1.936h-.646a.646.646 0 0 0-.645.645v5.162c0 .356.29.645.645.645h.646v1.935c0 .356.289.645.645.645H25.16c.356 0 .645-.289.645-.645v-2.58a.646.646 0 0 0-.645-.646h-.645v-3.87h.645c.356 0 .645-.29.645-.646V20a.646.646 0 0 0-.645-.645h-4.516V15.48a3.922 3.922 0 0 0 2.714-1.153 3.924 3.924 0 0 0 1.157-2.792v-.567a.646.646 0 0 0-.645-.645h-.567a3.924 3.924 0 0 0-2.792 1.156 3.964 3.964 0 0 0-.512.63 3.992 3.992 0 0 0-.512-.63 3.924 3.924 0 0 0-2.792-1.156h-.567a.646.646 0 0 0-.645.645v.567c0 1.055.411 2.046 1.157 2.792a3.922 3.922 0 0 0 2.714 1.153v3.875h-4.516a.646.646 0 0 0-.645.645v2.58zm7.23-10.188a2.637 2.637 0 0 1 1.8-.778 2.639 2.639 0 0 1-.777 1.8 2.639 2.639 0 0 1-1.8.778 2.64 2.64 0 0 1 .777-1.8zm-3.871 1.023a2.637 2.637 0 0 1-.778-1.8c.681.019 1.318.293 1.801.777.483.483.758 1.12.778 1.8a2.64 2.64 0 0 1-1.801-.777zm1.802 13.682v-1.29h1.29v1.29h-1.29zm-1.29 0h-1.29v-1.29h1.29v1.29zm-3.871-1.29h1.29v1.29h-1.29v-1.29zm1.29 5.16h1.29v1.291h-1.29v-1.29zm6.451 0v1.291h-1.29v-1.29h1.29zm-2.58 1.291h-1.29v-1.29h1.29v1.29zm5.161 0h-1.29v-1.29h1.29v1.29zm-9.677-2.58h-.645v-1.29h9.032v1.29h-8.387zm8.387-2.581h-1.29v-1.29h1.29v1.29zm1.29-2.58h-9.032v-1.291h9.032v1.29zm-3.87-2.582v-1.29h1.29v1.29h-1.29zm-1.291 0h-1.29v-1.29h1.29v1.29zm5.161 0h-1.29v-1.29h1.29v1.29zm-9.032-1.29h1.29v1.29h-1.29v-1.29zM7.097 14.194c3.913 0 7.097-3.184 7.097-7.097C14.194 3.184 11.01 0 7.097 0 3.184 0 0 3.184 0 7.097c0 3.913 3.184 7.097 7.097 7.097zm0-12.904a5.814 5.814 0 0 1 5.806 5.807 5.814 5.814 0 0 1-5.806 5.806A5.814 5.814 0 0 1 1.29 7.097 5.814 5.814 0 0 1 7.097 1.29z"/>
    <path d="M6.452 11.613h1.29v-1.41a1.933 1.933 0 0 0 1.29-1.816 1.938 1.938 0 0 0-1.935-1.935.646.646 0 0 1 0-1.29h1.935V3.87h-1.29v-1.29h-1.29V3.99c-.75.267-1.29.977-1.29 1.816 0 1.067.868 1.936 1.935 1.936a.646.646 0 0 1 0 1.29H5.16v1.29h1.29v1.29zM32.903 14.194c3.913 0 7.097-3.184 7.097-7.097C40 3.184 36.816 0 32.903 0c-3.913 0-7.097 3.184-7.097 7.097 0 3.913 3.184 7.097 7.097 7.097zm0-12.904a5.814 5.814 0 0 1 5.807 5.807 5.814 5.814 0 0 1-5.807 5.806 5.814 5.814 0 0 1-5.806-5.806 5.814 5.814 0 0 1 5.806-5.807z"/>
    <path d="M32.258 11.613h1.29v-1.41a1.933 1.933 0 0 0 1.29-1.816 1.938 1.938 0 0 0-1.935-1.935.646.646 0 0 1 0-1.29h1.936V3.87h-1.29v-1.29h-1.29V3.99c-.75.267-1.291.977-1.291 1.816 0 1.067.868 1.936 1.935 1.936a.646.646 0 0 1 0 1.29h-1.935v1.29h1.29v1.29z"/>
  </symbol>
  <symbol id="work" fill="#FFF" fill-rule="nonzero">
    <path d="M33.347 23.785a5.446 5.446 0 0 0 2.3-4.44v-3.461a.78.78 0 0 0-.039-.242 5.529 5.529 0 0 0-5.491-4.965 5.527 5.527 0 0 0-5.518 5.461.778.778 0 0 0-.003.062v3.146c0 1.774.87 3.43 2.304 4.442a9.94 9.94 0 0 0-3.736 2.324l-.49-2.21a1.68 1.68 0 0 0-1.65-1.324H5.909c-.515 0-.996.23-1.318.633-.323.402-.443.92-.332 1.424L6.632 35.31H.782a.781.781 0 0 0-.782.782v3.125c0 .431.35.78.781.78H39.22c.431 0 .781-.349.781-.78V33.122c0-4.318-2.785-7.997-6.653-9.337zm-3.23-11.545a3.964 3.964 0 0 1 3.713 2.592l-.008.007a5.226 5.226 0 0 1-3.7 1.55h-3.964v-.158l.002-.03a3.963 3.963 0 0 1 3.957-3.961zm-3.959 7.106V17.95h3.963a6.801 6.801 0 0 0 3.963-1.289v2.683a3.88 3.88 0 0 1-1.965 3.37c-1.23.7-2.76.7-3.992.003l-.007-.004a3.879 3.879 0 0 1-1.962-3.368zm3.963 5.46c4.586 0 8.317 3.73 8.317 8.316v2.188h-13.23l-1.627-7.324a8.35 8.35 0 0 1 6.54-3.18zm-23.676 2.46h8.258a.781.781 0 0 0 0-1.563H6.098l-.313-1.407a.124.124 0 0 1 .025-.108.124.124 0 0 1 .099-.047h15.115c.06 0 .11.04.124.1l2.46 11.07H8.232l-1.787-8.045zm31.992 11.17H1.563v-1.563H38.436v1.562z"/>
    <path d="M17.827 25.703a.787.787 0 0 0-.552.23.787.787 0 0 0-.229.552c0 .205.084.407.229.552a.787.787 0 0 0 .552.229.79.79 0 0 0 .553-.23.786.786 0 0 0 0-1.104.789.789 0 0 0-.553-.229zM10 19.998a9.935 9.935 0 0 0 7.071-2.93 10.026 10.026 0 0 0 1.976-11.336.781.781 0 1 0-1.413.666 8.46 8.46 0 0 1-1.668 9.566A8.382 8.382 0 0 1 10 18.435a8.382 8.382 0 0 1-5.966-2.47c-3.29-3.29-3.29-8.644 0-11.933a8.468 8.468 0 0 1 9.519-1.69.781.781 0 0 0 .658-1.417A10.036 10.036 0 0 0 2.929 2.927c-3.9 3.899-3.9 10.243 0 14.142A9.935 9.935 0 0 0 10 19.998z"/>
    <path d="M15.981 10.787h.568a.781.781 0 0 0 0-1.563h-.568a.781.781 0 0 0 0 1.563zM3.451 9.21a.781.781 0 0 0 0 1.562h.568a.781.781 0 0 0 0-1.563H3.45zM9.211 15.98v.567a.781.781 0 0 0 1.563 0v-.568a.781.781 0 0 0-1.563 0zM11.875 12.576a.781.781 0 0 0 .54-1.345l-1.633-1.566.007-5.622a.781.781 0 0 0-.78-.782h-.002c-.43 0-.78.35-.78.78l-.008 5.956c0 .213.086.417.24.565l1.875 1.797a.779.779 0 0 0 .54.217zM16.519 4.26a.787.787 0 0 0 .552-.229.787.787 0 0 0 .229-.552.787.787 0 0 0-.229-.552.787.787 0 0 0-.552-.23.787.787 0 0 0-.553.23.787.787 0 0 0-.228.552c0 .206.083.407.228.552a.787.787 0 0 0 .553.23z"/>
  </symbol>
  <symbol id="salary" fill="#FFF" fill-rule="nonzero">
    <path d="M21.872 10.933c0-6.026-4.903-10.929-10.93-10.929a10.96 10.96 0 0 0-5.194 1.314.78.78 0 0 0 .742 1.373 9.398 9.398 0 0 1 4.453-1.126c5.165 0 9.368 4.203 9.368 9.368 0 5.166-4.203 9.368-9.368 9.368-5.166 0-9.368-4.202-9.368-9.368A9.38 9.38 0 0 1 2.83 6.25a.78.78 0 1 0-1.352-.78 10.944 10.944 0 0 0-1.465 5.464c0 6.026 4.903 10.93 10.93 10.93 6.026 0 10.929-4.904 10.929-10.93z"/>
    <path d="M3.52 4.793c.209 0 .418-.083.571-.249l.019-.02A.781.781 0 0 0 2.968 3.46l-.02.02a.781.781 0 0 0 .572 1.313zM10.943 19.364c4.648 0 8.43-3.782 8.43-8.43 0-4.65-3.782-8.432-8.43-8.432-4.65 0-8.431 3.782-8.431 8.431 0 4.649 3.782 8.431 8.43 8.431zm0-15.3a6.878 6.878 0 0 1 6.87 6.87 6.877 6.877 0 0 1-6.87 6.869 6.877 6.877 0 0 1-6.87-6.87 6.878 6.878 0 0 1 6.87-6.87zM16.434 32.487c.01-.013.022-.027.031-.042l.01-.016.03-.05a.825.825 0 0 0 .059-.141c0-.002 0-.005.002-.007a.83.83 0 0 0 .016-.066l.003-.02c.003-.019.007-.037.009-.056a.763.763 0 0 0 0-.156c-.002-.019-.006-.037-.009-.056l-.003-.02a.935.935 0 0 0-.016-.066l-.002-.007a.696.696 0 0 0-.024-.065l-.002-.007a.859.859 0 0 0-.028-.058l-.005-.011-.03-.05-.01-.016-.031-.042-.014-.02-.04-.044-.011-.012-1.736-1.736a.781.781 0 0 0-1.104 1.104l.403.403H7.82c-.43 0-.78-.35-.78-.78v-6.675a.78.78 0 0 0-1.562 0v6.674a2.344 2.344 0 0 0 2.342 2.342h6.112l-.403.404a.78.78 0 0 0 1.104 1.104l1.736-1.736.011-.012a.836.836 0 0 0 .04-.045l.014-.019zM25.364 6.82a.778.778 0 0 0 1.104 0 .78.78 0 0 0 0-1.104l-.443-.443h6.151c.431 0 .781.35.781.78v5.868a.78.78 0 0 0 1.561 0V6.054a2.345 2.345 0 0 0-2.342-2.342h-6.073l.365-.365a.78.78 0 1 0-1.104-1.104L23.628 3.98a.78.78 0 0 0 0 1.104l1.736 1.736zM34.414 27.27a6.447 6.447 0 0 0 1.292-3.88v-2.842V20.539a6.49 6.49 0 0 0-6.483-6.483.781.781 0 0 0 0 1.561 4.928 4.928 0 0 1 4.886 4.337c-.91.127-2.093-.22-2.88-1.15a.781.781 0 0 0-1.051-.131c-1.433 1.027-4.071 2.165-5.854 1.407.072-.76.32-1.495.73-2.146a.78.78 0 1 0-1.322-.831 6.445 6.445 0 0 0-.992 3.436v2.85a6.45 6.45 0 0 0 1.293 3.88 10.748 10.748 0 0 0-5.57 9.426c0 .431.35.78.782.78h12.15a.78.78 0 1 0 0-1.56h-1.39v-5.218l2.66 2.088a.78.78 0 0 0 1.263-.614v-3.382a9.189 9.189 0 0 1 4.46 7.125H36.78a.78.78 0 1 0 0 1.561h2.422a.78.78 0 0 0 .78-.78c0-3.954-2.154-7.547-5.568-9.425zm-3.883-6.957c1.007.88 2.369 1.327 3.614 1.209v1.868a4.908 4.908 0 0 1-1.584 3.612 4.904 4.904 0 0 1-3.338 1.31 4.902 4.902 0 0 1-3.44-1.407 4.908 4.908 0 0 1-1.481-3.515v-1.666c.438.118.89.171 1.346.171 1.786 0 3.628-.802 4.883-1.582zm-4.451 8.744c.393.218.81.398 1.246.532l-1.246.977v-1.51zm-6.022 6.857a9.187 9.187 0 0 1 4.461-7.125v3.382a.78.78 0 0 0 1.262.614l2.662-2.088v5.217h-8.385zm11.063-6.325a6.394 6.394 0 0 0 1.246-.532v1.51l-1.246-.978z"/>
    <path d="M34.537 35.914h-.021a.78.78 0 1 0 0 1.561h.02a.78.78 0 1 0 0-1.56zM25.505 15.235l-.03.022a.78.78 0 0 0 .904 1.273l.021-.016a.78.78 0 0 0-.895-1.279zM27.238 24.56h.018a.78.78 0 1 0 0-1.561h-.018a.78.78 0 1 0 0 1.56zM31.19 24.56h.018a.78.78 0 1 0 0-1.561h-.018a.78.78 0 1 0 0 1.56zM9.962 11.372l1.364.565a.696.696 0 0 1-.532 1.286l-.683-.283a.78.78 0 1 0-.597 1.443l.648.268v.966a.78.78 0 1 0 1.562 0v-.881a2.254 2.254 0 0 0 1.421-1.292 2.26 2.26 0 0 0-1.221-2.95L10.56 9.93a.69.69 0 0 1-.375-.377.69.69 0 0 1 .375-.907.69.69 0 0 1 .532-.001l.682.282a.78.78 0 0 0 .598-1.442l-.649-.269V6.25a.78.78 0 0 0-1.561 0v.882A2.241 2.241 0 0 0 8.74 8.423c-.23.555-.23 1.168.002 1.727.23.558.664.992 1.22 1.222z"/>
  </symbol>
</svg>