<!-- group per page -->
<svg xmlns="http://www.w3.org/2000/svg" xmlns:xlink="http://www.w3.org/1999/xlink">
    <symbol style="fill:url(#a)" id="icon1" fill-rule="evenodd" fill="url(#a)">
      <path style="fill:url('#a')" fill="url(#a)" fill-rule="evenodd" d="M38.07.601l.132.006c.505 0 1.01.012 1.515.036l.457.019c.434.024.873.06 1.312.102.228.018.457.036.685.06.331.036.668.084 1.005.126.33.048.662.09.992.145.228.036.458.078.686.12.427.078.86.156 1.281.247.15.036.301.072.452.102.492.114.98.234 1.467.367l.127.03c.09.024.174.054.258.078.469.132.932.265 1.39.415.186.06.373.126.558.186.368.127.74.253 1.108.391.319.12.631.247.944.373.21.085.421.169.632.259.487.205.968.421 1.443.644a.222.222 0 0 0 .067.03 37.612 37.612 0 0 1 15.987 14.37c.049.084.097.168.15.246.175.295.362.584.53.884.072.127.133.26.205.385.09.157.174.32.258.482.199.373.397.746.584 1.124.09.18.174.367.264.554.175.373.35.752.512 1.125.072.168.138.343.21.51.175.41.337.825.493 1.246.049.12.09.24.133.36.174.482.343.963.493 1.445l.054.168a37.008 37.008 0 0 1 1.521 14.49c-.005.102-.017.21-.03.319-.041.433-.09.86-.15 1.293-.036.259-.078.518-.12.776-.042.289-.09.584-.138.872-.024.103-.037.21-.054.32h-.012a39.497 39.497 0 0 1-.71 3.06 37.65 37.65 0 0 1-1.877 5.216c3.79 1.245 6.515 4.62 6.515 8.59 0 2.237-1.053 4.108-1.967 5.485 0 .006-.006.012-.012.018-5.078 7.338-12.8 11.952-13.125 12.144 0 .006-.006.006-.012.006a1.515 1.515 0 0 1-.205.09c-.03.007-.06.025-.09.03a.958.958 0 0 1-.235.037l-.066.006h-.006c-.024 0-.048-.006-.066-.006a1.056 1.056 0 0 1-.24-.036c-.025-.006-.055-.024-.085-.03a1.242 1.242 0 0 1-.204-.09c-.006 0-.012 0-.012-.007-.247-.144-4.698-2.803-9.053-7.254a37.936 37.936 0 0 1-15.952 3.483C17.077 76.048 0 59.128 0 38.328c0-3.477.487-6.845 1.378-10.045H1.37c.043-.157.097-.307.145-.464a35.895 35.895 0 0 1 .625-1.954c.097-.265.187-.524.29-.788.143-.385.3-.77.462-1.155l.18-.44c.211-.487.434-.968.662-1.437.012-.036.03-.066.049-.102A37.521 37.521 0 0 1 13.834 9.25l.09-.072a38.161 38.161 0 0 1 1.649-1.257c.319-.235.644-.463.968-.686.247-.168.488-.325.734-.487l.692-.44c.349-.21.698-.42 1.047-.619.144-.084.288-.168.433-.247.433-.24.866-.475 1.311-.697.072-.036.15-.078.229-.115a31.29 31.29 0 0 1 1.503-.71c.03-.017.06-.03.097-.041.529-.241 1.07-.464 1.618-.674l.048-.024a41.384 41.384 0 0 1 3.332-1.113c.084-.024.162-.048.24-.066.476-.132.963-.259 1.45-.373.15-.036.301-.072.451-.102.415-.097.83-.18 1.252-.259.24-.048.48-.09.721-.126.337-.06.668-.109 1.005-.157.343-.048.686-.09 1.028-.132.247-.03.494-.054.74-.078.44-.042.878-.072 1.318-.102.168-.006.336-.018.51-.024a41.77 41.77 0 0 1 1.51-.043c.085 0 .169-.006.26-.006zm31.602 54.864c-1.6 0-3.35.872-5.203 2.598-.024.018-.048.03-.066.048-.012.006-.018.012-.024.018a1.204 1.204 0 0 1-1.612-.132c-.042-.048-.078-.102-.114-.15-1.775-1.576-3.44-2.382-4.963-2.382-4.03 0-7.314 3.013-7.314 6.706 0 1.444.62 2.701 1.546 4.133.006 0 .006.006.006.006 3.982 5.756 9.865 9.834 11.753 11.055 1.894-1.227 7.783-5.311 11.76-11.055 0-.006.006-.006.006-.006.721-1.101 1.546-2.55 1.546-4.133 0-3.693-3.285-6.706-7.32-6.706zM38.196 3.013h-.367c-.476.006-.95.018-1.426.037-.15.006-.3.018-.457.024-.421.03-.842.06-1.263.096l-.644.072a27.916 27.916 0 0 0-1.895.265c-.252.042-.505.084-.757.132-.361.072-.722.144-1.083.223a42.28 42.28 0 0 0-1.774.44c-.115.035-.23.065-.343.095-.458.132-.915.27-1.366.42-.072.025-.15.049-.228.08-.47.156-.939.324-1.402.504-.066.024-.132.055-.198.079-.458.18-.915.366-1.366.565-.084.036-.168.078-.253.114-.42.187-.836.385-1.245.59-.132.06-.258.126-.39.192a34.918 34.918 0 0 0-1.637.896c-.27.157-.535.313-.8.476-.276.168-.553.349-.83.523-.168.114-.337.223-.505.337-.367.252-.734.505-1.089.764-.066.054-.138.102-.204.15A35.672 35.672 0 0 0 5.937 23.013l-.018.037a41.49 41.49 0 0 0-.638 1.395c-.054.126-.108.247-.156.373-.157.367-.307.74-.451 1.119-.084.234-.169.469-.253.71-.102.282-.198.565-.295.854-.102.324-.204.65-.3.98a34.825 34.825 0 0 0-1.42 9.847c0 19.47 16 35.314 35.663 35.314a35.54 35.54 0 0 0 14.238-2.941 33.956 33.956 0 0 1-2.358-3.026l-.006-.006c-.007-.006-.012-.012-.012-.018-1.023-1.564-1.961-3.308-1.961-5.48 0-5.022 4.36-9.112 9.72-9.112 1.943 0 3.952.842 5.991 2.496 2.027-1.654 4.036-2.496 5.991-2.496.264 0 .524.018.788.042.8-1.733 1.468-3.531 1.985-5.378.295-1.052.53-2.111.722-3.176.048-.258.09-.523.132-.782.042-.252.079-.505.115-.752a40.9 40.9 0 0 0 .168-1.51 35.07 35.07 0 0 0-1.426-13.558c-.018-.053-.036-.108-.048-.162-.144-.45-.3-.902-.463-1.347l-.126-.343c-.145-.39-.3-.776-.463-1.16-.067-.157-.127-.32-.199-.476-.15-.355-.313-.704-.475-1.053l-.253-.523a28.55 28.55 0 0 0-.541-1.047c-.084-.156-.162-.306-.247-.457a33.537 33.537 0 0 0-.685-1.185 4.339 4.339 0 0 1-.139-.234A35.763 35.763 0 0 0 53.545 6.514c-.03-.018-.06-.03-.09-.042-.438-.21-.877-.403-1.323-.595l-.613-.253c-.289-.114-.572-.229-.86-.337-.355-.126-.704-.253-1.059-.373l-.505-.168a47.2 47.2 0 0 0-1.311-.397c-.12-.03-.235-.066-.355-.096-.464-.127-.927-.241-1.39-.343-.139-.03-.27-.067-.403-.09-.409-.09-.818-.169-1.227-.241-.204-.036-.409-.078-.62-.108-.319-.055-.637-.097-.956-.139-.3-.042-.607-.084-.914-.114-.223-.024-.445-.042-.662-.06a27.23 27.23 0 0 0-1.209-.09c-.15-.012-.295-.012-.445-.018-.47-.025-.938-.037-1.407-.037zM8.583 42.881C10.81 57.131 23.49 67.874 38.07 67.874a1.203 1.203 0 1 1 0 2.406c-7.741 0-15.23-2.761-21.077-7.772C11.2 57.546 7.368 50.713 6.208 43.254a1.198 1.198 0 0 1 .998-1.371 1.207 1.207 0 0 1 1.377.998zM38.07 24.283c7.807 0 14.16 6.297 14.16 14.045 0 7.741-6.353 14.039-14.16 14.039-7.813 0-14.165-6.298-14.165-14.04 0-7.747 6.352-14.044 14.165-14.044zm0 2.406c-6.484 0-11.76 5.22-11.76 11.639 0 6.412 5.276 11.633 11.76 11.633 6.478 0 11.754-5.221 11.754-11.633 0-6.418-5.276-11.64-11.754-11.64zm0 7.579c2.25 0 4.084 1.822 4.084 4.06 0 2.237-1.834 4.054-4.084 4.054-2.255 0-4.084-1.817-4.084-4.054 0-2.238 1.829-4.06 4.084-4.06zm0 2.406c-.926 0-1.678.74-1.678 1.654 0 .908.752 1.648 1.678 1.648.927 0 1.678-.74 1.678-1.648 0-.914-.751-1.654-1.678-1.654zm-29.822.33c.054.055.102.12.15.187a1.1 1.1 0 0 1 .174.433 1.212 1.212 0 0 1-.325 1.083 1.222 1.222 0 0 1-.854.355 1.208 1.208 0 0 1-1.178-1.438c.018-.078.042-.156.072-.228a1.1 1.1 0 0 1 .108-.205c.042-.066.096-.132.15-.186.445-.452 1.258-.446 1.703 0zM38.069 6.37c7.741 0 15.224 2.76 21.071 7.771 5.792 4.963 9.624 11.802 10.79 19.254a1.208 1.208 0 0 1-1.004 1.378 1.94 1.94 0 0 1-.186.012 1.196 1.196 0 0 1-1.185-1.017C65.323 19.525 52.65 8.776 38.069 8.776a1.203 1.203 0 1 1 0-2.406z" transform="translate(.338)"/>
    </symbol>
</svg>
