<svg xmlns="http://www.w3.org/2000/svg" width="136" height="30" viewBox="0 0 136 30">
    <defs>
        <linearGradient id="a" x1="16.492%" x2="82.241%" y1="85.286%" y2="18.081%">
            <stop offset="0%" stop-color="#F68C5F"/>
            <stop offset="100%" stop-color="#ED3191"/>
        </linearGradient>
        <linearGradient id="b" x1="14.792%" x2="85.207%" y1="85.074%" y2="15.022%">
            <stop offset="0%" stop-color="#F68C5F"/>
            <stop offset="100%" stop-color="#ED3191"/>
        </linearGradient>
    </defs>
    <g fill="none" fill-rule="evenodd">
        <path fill="url(#a)" d="M20.769 16.857a5.863 5.863 0 1 1-5.732-7.571h.034a4.92 4.92 0 0 1 1.786.474 5.043 5.043 0 0 1 1.463 1.066 4.411 4.411 0 0 1 1.24 3.26v.154a4.069 4.069 0 0 1-1.3 2.617 3.529 3.529 0 0 1-2.643.966H15.45a3.211 3.211 0 0 1-2-1.04 2.66 2.66 0 0 1-.698-2v-.074c0-.02 0-.08.018-.112a2.317 2.317 0 0 1 .78-1.366c.373-.33.867-.487 1.362-.434H15l.123.026c.301.084.568.264.76.511a.143.143 0 0 1-.177.212.991.991 0 0 0-.452-.117 1.306 1.306 0 0 0-.837.32c-.249.217-.4.526-.417.857-.01.215.024.43.1.631.134.376.387.698.72.917.615.37 1.385.37 2 0 .391-.226.717-.55.946-.94a2.823 2.823 0 0 0 .297-.874 2.857 2.857 0 0 0-.572-2.24 3.471 3.471 0 0 0-2.134-1.297l-.188-.026a3.757 3.757 0 0 0-2.883.903 4.357 4.357 0 0 0-1.46 2.554c0 .075-.023.146-.032.212-.008.065 0 .1 0 .143 0 .134-.017.271-.017.402a4.66 4.66 0 0 0 1.22 3.106 5.223 5.223 0 0 0 3.237 1.694h.269a5.52 5.52 0 0 0 4.128-1.497c.449-.42.832-.904 1.138-1.437z"/>
        <path fill="url(#b)" d="M15.143.286C7.095.252.483 6.632.23 14.676c-.253 8.043 5.945 14.826 13.979 15.298v-7.011a7.529 7.529 0 0 1-4.62-2.232 8.146 8.146 0 0 1-2.286-5.065 8.36 8.36 0 0 1-.017-1.009v-.086A7.826 7.826 0 0 1 9.674 9.37a7.251 7.251 0 0 1 5.237-2.08h.255a7.857 7.857 0 0 1 .914 15.654v7.031c8.035-.472 14.232-7.256 13.978-15.3C29.805 6.63 23.191.25 15.143.286zm6.817 9.143a1.06 1.06 0 1 1 0-2.12 1.06 1.06 0 0 1 0 2.12z"/>
        <path fill="#F05E83" fill-rule="nonzero" d="M42.023 10.414c2.043 0 3.217 1.023 3.617 1.532A1.071 1.071 0 1 1 44 13.323a2.517 2.517 0 0 0-1.974-.857c-1.552 0-2.395 1.197-2.395 3.283 0 2.085.858 3.305 2.395 3.305 1.023 0 1.688-.511 2.197-.888a1.08 1.08 0 0 1 1.354 1.68 5.331 5.331 0 0 1-3.551 1.263c-3.017 0-4.815-1.715-4.815-5.346 0-3.632 1.795-5.349 4.812-5.349zM49.429 13.389c-.19.148-.425.226-.666.222a1.043 1.043 0 0 1-1.049-1.04 1.1 1.1 0 0 1 .286-.734c.62-.686 1.731-1.428 3.637-1.428 2.752 0 4.394 1.354 4.394 3.714V19.8a1.177 1.177 0 1 1-2.351 0c-.6.954-1.574 1.286-2.906 1.286-2.174 0-3.617-1.352-3.617-3.349 0-2.063 1.663-3.128 3.594-3.128h2.906v-.4c0-.998-.731-1.663-2.02-1.663-.809.029-1.586.325-2.208.843zm4.237 3.714v-.632H51.07c-.977 0-1.508.466-1.508 1.266 0 .857.597 1.354 1.84 1.354 1.183 0 2.268-.754 2.268-1.997l-.005.009zM67.117 14.286v5.537a1.157 1.157 0 0 1-1.197 1.143 1.143 1.143 0 0 1-1.2-1.143V14.72c0-1.266-.509-2.131-1.951-2.131-1.666 0-2.22.977-2.22 2.285v4.949a1.197 1.197 0 1 1-2.395 0v-8.077a1.197 1.197 0 1 1 2.395 0c.422-.643 1.354-1.332 2.84-1.332 3.017 0 3.728 1.932 3.728 3.872zM75.714 11.303V6.2a1.2 1.2 0 0 1 2.397 0v10.449c0 2.951-1.908 4.437-4.594 4.437-2.994 0-4.746-1.715-4.746-5.323 0-3.609 1.715-5.349 4.503-5.349a3.637 3.637 0 0 1 2.44.889zm0 2.286s-.857-1.143-2.197-1.143c-1.517.011-2.374 1.12-2.374 3.317s.843 3.283 2.374 3.283c1.289 0 2.197-.857 2.197-2.397v-3.06zM82.76 20.089l-3.429-7.878a1.209 1.209 0 0 1 1.109-1.663c.491-.006.934.295 1.109.755L84 17.47l2.443-6.168c.173-.46.617-.762 1.108-.755a1.209 1.209 0 0 1 1.109 1.663l-4.126 9.32c-.977 2.175-2.374 3.715-4.594 3.715a1.109 1.109 0 1 1 0-2.217c1.42.011 2.086-1.12 2.82-2.94zM94.14 10.414c2.043 0 3.217 1.023 3.617 1.532a1.074 1.074 0 0 1-.82 1.768 1.077 1.077 0 0 1-.823-.377 2.529 2.529 0 0 0-1.974-.857c-1.551 0-2.397 1.197-2.397 3.283s.857 3.306 2.397 3.306c1.02 0 1.686-.512 2.197-.889.19-.148.425-.226.666-.22a1.069 1.069 0 0 1 .686 1.886 5.314 5.314 0 0 1-3.549 1.263c-3.017 0-4.814-1.715-4.814-5.346 0-3.632 1.797-5.349 4.814-5.349zM101.551 13.389c-.19.148-.424.226-.665.222a1.043 1.043 0 0 1-1.043-1.04 1.1 1.1 0 0 1 .286-.734c.62-.686 1.728-1.428 3.637-1.428 2.751 0 4.394 1.354 4.394 3.714V19.8a1.177 1.177 0 1 1-2.351 0c-.6.954-1.578 1.286-2.909 1.286-2.174 0-3.614-1.352-3.614-3.349 0-2.063 1.663-3.128 3.594-3.128h2.906v-.4c0-.998-.732-1.663-2.02-1.663a3.663 3.663 0 0 0-2.215.843zm4.238 3.714v-.632h-2.598c-.974 0-1.508.466-1.508 1.266 0 .857.6 1.354 1.843 1.354 1.174 0 2.263-.754 2.263-1.997v.009zM125.8 14.286v5.537a1.143 1.143 0 0 1-1.197 1.143 1.143 1.143 0 0 1-1.2-1.143V14.72c0-1.266-.509-2.131-1.952-2.131-1.597 0-2.217.857-2.217 2.108v5.126a1.157 1.157 0 0 1-1.2 1.143 1.143 1.143 0 0 1-1.197-1.143V14.72c0-1.266-.511-2.131-1.951-2.131-1.666 0-2.22.977-2.22 2.285v4.949a1.2 1.2 0 0 1-2.397 0v-8.077a1.2 1.2 0 0 1 2.397 0c.423-.643 1.354-1.332 2.84-1.332 1.82 0 2.728.572 3.283 1.429.711-.954 1.665-1.429 3.174-1.429 3.017 0 3.837 1.932 3.837 3.872zM130.171 13.343c0 1.643 5.458.888 5.458 4.548 0 2.086-1.775 3.143-4.06 3.143-1.906 0-3.372-.857-3.926-1.554a1.026 1.026 0 0 1-.266-.686 1.077 1.077 0 0 1 1.063-1.065c.26-.001.51.096.703.271a3.651 3.651 0 0 0 2.44.909c1 0 1.643-.266 1.643-.886 0-1.797-5.429-.857-5.429-4.637 0-2 1.666-2.975 3.714-2.975 1.575 0 2.975.6 3.595 1.378a.949.949 0 0 1 .223.665 1.08 1.08 0 0 1-1.066 1.066 1.206 1.206 0 0 1-.754-.311 3.211 3.211 0 0 0-2-.712c-.849.003-1.338.292-1.338.846z"/>
    </g>
</svg>
