<svg xmlns="http://www.w3.org/2000/svg" width="30" height="30" viewBox="0 0 30 30">
    <defs>
        <linearGradient id="a" x1="16.678%" x2="82.063%" y1="85.286%" y2="18.081%">
            <stop offset="0%" stop-color="#F68C5F"/>
            <stop offset="100%" stop-color="#ED3191"/>
        </linearGradient>
        <linearGradient id="b" x1="14.792%" x2="85.207%" y1="85.439%" y2="14.657%">
            <stop offset="0%" stop-color="#F68C5F"/>
            <stop offset="100%" stop-color="#ED3191"/>
        </linearGradient>
    </defs>
    <g fill="none" fill-rule="evenodd">
        <path fill="url(#a)" d="M20.857 16.993a5.84 5.84 0 0 1-6.692 4.043A5.855 5.855 0 0 1 9.45 14.79a5.848 5.848 0 0 1 5.697-5.361h.034a4.891 4.891 0 0 1 1.78.473c.545.264 1.039.625 1.457 1.065a4.414 4.414 0 0 1 1.235 3.257v.154a4.069 4.069 0 0 1-1.295 2.615 3.51 3.51 0 0 1-2.633.965H15.557a3.197 3.197 0 0 1-1.993-1.04 2.662 2.662 0 0 1-.694-1.997v-.075c0-.02 0-.08.017-.11a2.316 2.316 0 0 1 .777-1.365c.372-.33.864-.487 1.358-.434h.088l.122.025c.3.085.566.264.758.511a.143.143 0 0 1-.177.212.986.986 0 0 0-.45-.117 1.299 1.299 0 0 0-.834.32 1.226 1.226 0 0 0-.415.856c-.01.214.024.43.1.63.133.376.385.697.717.917.613.369 1.379.369 1.992 0 .39-.226.714-.55.942-.94a2.827 2.827 0 0 0 .296-.873 2.86 2.86 0 0 0-.569-2.238 3.458 3.458 0 0 0-2.126-1.296l-.188-.025a3.736 3.736 0 0 0-2.872.902 4.356 4.356 0 0 0-1.455 2.552c0 .074-.023.145-.031.21-.009.066 0 .1 0 .143 0 .135-.017.272-.017.403a4.663 4.663 0 0 0 1.215 3.103 5.199 5.199 0 0 0 3.225 1.693h.267a5.49 5.49 0 0 0 4.114-1.496c.447-.42.829-.904 1.133-1.436z"/>
        <path fill="url(#b)" d="M15.141.286C7.128.252.545 6.637.293 14.688.041 22.738 6.212 29.528 14.211 30v-7.017a7.48 7.48 0 0 1-4.6-2.234 8.172 8.172 0 0 1-2.276-5.07 8.41 8.41 0 0 1-.017-1.01v-.085a7.85 7.85 0 0 1 2.378-5.207 7.2 7.2 0 0 1 5.215-2.082h.253c4.123.028 7.516 3.268 7.757 7.405.24 4.137-2.755 7.752-6.847 8.263V30c8-.472 14.171-7.262 13.919-15.313C29.74 6.635 23.155.25 15.14.286zm6.788 9.15a1.058 1.058 0 0 1-1.055-1.06c0-.586.472-1.061 1.055-1.061s1.055.475 1.055 1.06c0 .282-.11.552-.309.751-.198.199-.466.31-.746.31z"/>
    </g>
</svg>
