<!-- group per page -->
<svg xmlns="http://www.w3.org/2000/svg" xmlns:xlink="http://www.w3.org/1999/xlink">
  <symbol id="find" fill="none" fill-rule="evenodd">
      <path fill="#FFF" fill-rule="nonzero" d="M33.68 32.138l-7.438-7.439a9.047 9.047 0 0 0 1.94-5.608c0-5.013-4.078-9.091-9.09-9.091C14.077 10 10 14.078 10 19.091c0 5.013 4.078 9.092 9.091 9.092a9.047 9.047 0 0 0 5.608-1.94l7.439 7.437a1.087 1.087 0 0 0 1.542 0 1.09 1.09 0 0 0 0-1.542zM12.182 19.09c0-3.81 3.1-6.91 6.91-6.91S26 15.282 26 19.092s-3.1 6.91-6.91 6.91-6.91-3.1-6.91-6.91z"/>
  </symbol>
  <symbol id="edit" fill="none" fill-rule="evenodd">
      <path fill="#FFF" fill-rule="nonzero" d="M32.886 22.366l-3.51-3.51a1.161 1.161 0 0 0-1.642 0l-.702.702V11.16c0-.641-.52-1.161-1.161-1.161h-14.71C10.52 10 10 10.52 10 11.161v18.581c0 .641.52 1.161 1.161 1.161h6.58v1.936c0 .641.52 1.161 1.162 1.161h3.51c.308 0 .603-.122.821-.34l9.652-9.652a1.161 1.161 0 0 0 0-1.642zM12.323 12.323H24.71v9.557l-6.628 6.628a1.151 1.151 0 0 0-.066.073h-5.693V12.323zm9.609 19.354h-1.867V29.81l8.49-8.49 1.867 1.867-8.49 8.49z"/>
  </symbol>
  <symbol id="settings" fill="#FFF" fill-rule="nonzero">
      <path d="M22 17.636A4.369 4.369 0 0 0 17.636 22 4.369 4.369 0 0 0 22 26.364 4.369 4.369 0 0 0 26.364 22 4.369 4.369 0 0 0 22 17.636zm0 6.546A2.184 2.184 0 0 1 19.818 22c0-1.203.979-2.182 2.182-2.182 1.203 0 2.182.979 2.182 2.182A2.184 2.184 0 0 1 22 24.182z"/>
      <path d="M33.123 18.748l-2.207-.44 1.248-1.874a1.09 1.09 0 0 0-.136-1.376l-3.085-3.086a1.09 1.09 0 0 0-1.377-.136l-1.873 1.248-.441-2.207a1.09 1.09 0 0 0-1.07-.877h-4.364c-.52 0-.968.367-1.07.877l-.441 2.207-1.873-1.248a1.09 1.09 0 0 0-1.376.136l-3.086 3.086a1.09 1.09 0 0 0-.136 1.376l1.248 1.873-2.207.441a1.09 1.09 0 0 0-.877 1.07v4.364c0 .52.367.968.877 1.07l2.207.44-1.248 1.874a1.09 1.09 0 0 0 .136 1.376l3.086 3.086a1.09 1.09 0 0 0 1.376.136l1.873-1.248.441 2.207c.102.51.55.877 1.07.877h4.364c.52 0 .968-.367 1.07-.877l.441-2.207 1.873 1.248a1.09 1.09 0 0 0 1.377-.136l3.085-3.086a1.09 1.09 0 0 0 .136-1.376l-1.248-1.873 2.207-.442c.51-.101.877-.55.877-1.07v-4.363c0-.52-.367-.968-.877-1.07zm-1.305 4.54l-2.927.585a1.091 1.091 0 0 0-.694 1.675l1.656 2.484-1.82 1.82-2.485-1.655a1.091 1.091 0 0 0-1.675.693l-.586 2.928h-2.574l-.586-2.928a1.091 1.091 0 0 0-1.675-.693l-2.484 1.656-1.82-1.82 1.655-2.485a1.09 1.09 0 0 0-.694-1.675l-2.927-.586v-2.574l2.928-.586a1.091 1.091 0 0 0 .693-1.675l-1.656-2.484 1.82-1.82 2.485 1.655a1.09 1.09 0 0 0 1.675-.693l.586-2.928h2.574l.586 2.928a1.091 1.091 0 0 0 1.675.693l2.484-1.656 1.82 1.82-1.655 2.485a1.09 1.09 0 0 0 .694 1.675l2.927.586v2.574z"/>
  </symbol>
  <symbol id="report" fill="#FFF" fill-rule="nonzero">
    <path d="M12.09 29.636h3.274v3.273c0 .603.488 1.091 1.09 1.091H31a1.09 1.09 0 0 0 1.09-1.09V15.454A1.09 1.09 0 0 0 31 14.364h-3.273V11.09A1.09 1.09 0 0 0 26.637 10H12.09A1.09 1.09 0 0 0 11 11.09v17.455c0 .603.488 1.091 1.09 1.091zm17.82 2.182H17.544V16.545H29.91v15.273zM13.181 12.182h12.363v2.182h-9.09a1.09 1.09 0 0 0-1.091 1.09v12h-2.182V12.183z"/>
    <path d="M20.818 18.727a1.09 1.09 0 0 0 0 2.182h5.818a1.09 1.09 0 0 0 0-2.182h-5.818zM26.636 23.09h-5.818a1.09 1.09 0 0 0 0 2.183h5.818a1.09 1.09 0 0 0 0-2.182zM26.636 27.455h-5.818a1.09 1.09 0 0 0 0 2.181h5.818a1.09 1.09 0 0 0 0-2.181z"/>
  </symbol>
  <symbol id="status_info" fill="#FFF" fill-rule="nonzero">
    <path d="M22 10c-6.617 0-12 5.383-12 12s5.383 12 12 12 12-5.383 12-12-5.383-12-12-12zm0 21.818c-5.414 0-9.818-4.404-9.818-9.818s4.404-9.818 9.818-9.818 9.818 4.404 9.818 9.818-4.404 9.818-9.818 9.818z"/>
    <path d="M22 15.09A1.456 1.456 0 0 0 22 18a1.456 1.456 0 0 0 0-2.91zM22 20.182a1.09 1.09 0 0 0-1.09 1.09v6.546a1.09 1.09 0 0 0 2.18 0v-6.545A1.09 1.09 0 0 0 22 20.182z"/>
  </symbol>
  <symbol id="cancel" fill="none" fill-rule="evenodd">
    <path fill="#FFF" fill-rule="nonzero" d="M21.976 10C15.372 10 10 15.372 10 21.976c0 6.603 5.373 11.975 11.976 11.975 6.603 0 11.975-5.372 11.975-11.975C33.95 15.372 28.579 10 21.976 10zm0 2.182c2.308 0 4.431.803 6.107 2.144L14.326 28.083a9.747 9.747 0 0 1-2.144-6.107c0-5.4 4.393-9.794 9.794-9.794zm0 19.587a9.746 9.746 0 0 1-6.108-2.143l13.758-13.758a9.747 9.747 0 0 1 2.143 6.108c0 5.4-4.393 9.793-9.793 9.793z"/>
  </symbol>
  <symbol id="unrated" fill="" fill-rule="nonzero">
    <path d="M16 0c4.274 0 8.292 1.664 11.314 4.686A15.895 15.895 0 0 1 32 16c0 4.274-1.664 8.292-4.686 11.314A15.895 15.895 0 0 1 16 32a15.895 15.895 0 0 1-11.314-4.686A15.895 15.895 0 0 1 0 16c0-4.274 1.664-8.292 4.686-11.314A15.895 15.895 0 0 1 16 0zm0 1.905C8.228 1.905 1.905 8.228 1.905 16S8.228 30.095 16 30.095 30.095 23.772 30.095 16 23.772 1.905 16 1.905zm7.655 13.005a1.103 1.103 0 1 1 0 2.207H8.207a1.103 1.103 0 1 1 0-2.207h15.448z"/>
  </symbol>
  <symbol id="info" fill="" fill-rule="nonzero">
    <path id="a" d="M12 0c3.205 0 6.219 1.248 8.485 3.515A11.921 11.921 0 0 1 24 12c0 3.205-1.248 6.219-3.515 8.485A11.921 11.921 0 0 1 12 24a11.921 11.921 0 0 1-8.485-3.515A11.921 11.921 0 0 1 0 12c0-3.205 1.248-6.219 3.515-8.485A11.921 11.921 0 0 1 12 0zm0 1.429C6.17 1.429 1.429 6.17 1.429 12c0 5.83 4.742 10.571 10.571 10.571 5.83 0 10.571-4.742 10.571-10.571C22.571 6.17 17.83 1.429 12 1.429zm0 8.192c.686 0 1.241.555 1.241 1.241v5.71a1.241 1.241 0 1 1-2.482 0v-5.71c0-.686.555-1.241 1.241-1.241zm0-3.414a1.241 1.241 0 1 1 0 2.483 1.241 1.241 0 0 1 0-2.483z"/>
  </symbol>


</svg>
